<?xml version="1.0" encoding="UTF-8"?>
<svg id="Capa_1" data-name="Capa 1" xmlns="http://www.w3.org/2000/svg" viewBox="0 0 800 800">
  <defs>
    <style>
      .cls-1 {
        fill: #fafdfd;
        stroke-width: 0px;
      }
    </style>
  </defs>
  <path class="cls-1" d="M406.58,677.04c-71.79,0-143.58-.02-215.36.02-11.99,0-23.79-.97-34.44-7.05-19.95-11.39-30.39-28.73-30.57-51.7-.27-33.52-.28-67.04,0-100.56.15-18.48,12.51-31.13,29.47-31.21,17.22-.08,29.78,13.06,29.89,31.81.17,30.26.24,60.52-.1,90.77-.07,6.56,1.61,8.5,8.36,8.49,141.8-.2,283.59-.19,425.39,0,6.57,0,8.57-1.63,8.5-8.37-.36-30.55-.34-61.11-.08-91.66.18-20.62,16.53-34.18,35.92-30.39,13.89,2.71,23.17,14.33,23.3,30.52.26,33.52.07,67.04.04,100.56,0,2.07-.24,4.15-.42,6.21-2.52,27.5-23.86,49.18-51.21,51.88-5.01.49-10.07.66-15.1.66-71.19.04-142.39.03-213.58.03Z"/>
  <path class="cls-1" d="M376.78,431.41c0-5.95,0-9.48,0-13.02,0-89.25.05-178.51-.05-267.76-.01-11.97,2.93-22.34,13.3-29.37,17.39-11.8,40.96-2.31,45.33,18.33.91,4.3,1.01,8.82,1.02,13.24.06,88.66.04,177.32.04,265.98,0,3.46,0,6.93,0,12.41,3.71-3.37,6.08-5.36,8.26-7.53,27.06-27.04,54.18-54.02,81.09-81.2,8.95-9.05,19.34-12.69,31.52-9.22,19.67,5.6,27.4,29.67,15.06,46.05-1.77,2.35-3.91,4.45-6,6.55-45.27,45.31-90.54,90.62-135.86,135.88-15.76,15.74-32.08,15.65-48-.25-45.51-45.49-91-91-136.46-136.54-13.83-13.86-14.84-31.75-2.63-44.18,12.13-12.35,30.55-11.61,44.23,2.01,26.9,26.78,53.68,53.68,80.52,80.51,2.23,2.23,4.59,4.33,8.63,8.13Z"/>
</svg>