<?xml version="1.0" encoding="UTF-8"?>
<svg id="Capa_1" data-name="Capa 1" xmlns="http://www.w3.org/2000/svg" viewBox="0 0 394 413">
  <defs>
    <style>
      .cls-1 {
        fill: #b153e5;
        stroke-width: 0px;
      }
    </style>
  </defs>
  <path class="cls-1" d="M337,207.38v16.52c-.94.88-.93.88-1.04,2.3-3.57,43.39-22.53,78.63-56.6,105.56-19.63,15.52-42.01,25.13-66.84,28.84,0-33.24.01-66.47-.09-99.71,0-2.5.88-2.85,3.04-2.83,9.44.1,18.88-.03,28.32.09,2.15.03,3.08-.5,3.41-2.75,1.76-12.26,3.59-24.5,5.58-36.72.4-2.46.06-3.15-2.58-3.11-11.7.15-23.4.06-35.1.07-1.42,0-2.67.21-2.64-2,.12-9.24-.16-18.49.15-27.73.37-11.07,6.76-18.24,17.51-20.19,1.92-.35,3.91-.43,5.87-.45,5.51-.07,11.01-.11,16.52-.02,1.92.03,2.51-.58,2.49-2.53-.1-8.75-.04-17.5-.04-26.25,0-7.41.02-7.59-7.27-8.47-12.49-1.51-25.03-3-37.6-.88-20.07,3.39-33.86,14.37-40.31,33.95-2.26,6.87-3.17,13.98-3.2,21.2-.04,10.03-.13,20.06.06,30.09.05,2.83-.87,3.36-3.46,3.32-10.42-.14-20.85,0-31.27-.1-2.04-.02-2.67.51-2.66,2.61.1,12.39.1,24.78,0,37.17-.02,2.21.56,2.81,2.78,2.79,10.52-.12,21.04,0,31.56-.1,2.17-.02,3.04.35,3.03,2.83-.1,33.24-.08,66.47-.08,99.71-.2.01-.4.06-.58.03-50.01-9.22-86.43-36.62-109.1-82.08-8.28-16.61-12.64-34.41-13.84-52.96-.05-.78.7-2.14-1.01-2.28v-15.34c.95-.85.94-.85,1.05-2.28,3.49-43.99,22.67-79.66,57.43-106.71,23.18-18.05,49.73-27.78,79.07-29.83.78-.05,2.14.69,2.28-1.01h15.34c-.32,1.44.87.9,1.4.96,2.54.29,5.1.38,7.63.69,40.08,4.9,72.88,23.1,98.18,54.47,18.98,23.54,29.37,50.63,31.57,80.82q.1,1.43,1.04,2.3Z"/>
</svg>