<?xml version="1.0" encoding="UTF-8"?>
<svg id="Capa_1" data-name="Capa 1" xmlns="http://www.w3.org/2000/svg" viewBox="0 0 394 413">
  <defs>
    <style>
      .cls-1 {
        fill: #fff;
        stroke-width: 0px;
      }
    </style>
  </defs>
  <path class="cls-1" d="M351,129.1v149.86c-.5,3.14-.83,6.31-1.52,9.4-7.82,34.77-28.86,57.07-63.22,66.61-4.48,1.24-9.17,1.69-13.77,2.51H122.65c-.97-.18-1.93-.42-2.91-.53-8.39-.92-16.6-2.78-24.21-6.38-32.96-15.59-50.73-41.69-51.24-78.2-.64-45.55-.18-91.11-.14-136.67.01-14.76,3.26-28.82,10.76-41.55,16.91-28.68,42.26-43.36,75.55-43.54,44.75-.24,89.5-.11,134.25,0,5.76.02,11.66.32,17.26,1.56,34.75,7.67,56.97,28.82,66.51,63.11,1.25,4.48,1.7,9.19,2.52,13.79ZM323.8,204.33c0-22.27.02-44.55,0-66.82,0-7.02-.71-13.95-3.09-20.62-8.69-24.4-29.69-39.06-56.24-39.09-44.54-.05-89.08-.14-133.62.12-6.78.04-13.87.95-20.27,3.1-24.54,8.25-39.17,29.51-39.21,56.04-.06,44.65-.14,89.3.12,133.95.04,6.68.95,13.67,3.06,19.98,8.18,24.43,29.37,39.2,55.69,39.27,44.94.11,89.88.09,134.82,0,20-.04,36.16-8.04,48.03-24.23,7.65-10.43,10.74-22.34,10.72-35.17-.03-22.18,0-44.35,0-66.53Z"/>
  <path class="cls-1" d="M276.65,204.16c-.16,43.55-35.97,79.22-79.28,78.97-43.61-.25-79.22-36.09-78.88-79.37.35-43.56,35.81-78.89,79.13-78.82,43.48.07,79.19,35.86,79.03,79.22ZM197.67,152.22c-28.48-.14-51.76,23.05-51.9,51.71-.14,28.48,23.05,51.76,51.7,51.91,28.48.14,51.76-23.06,51.9-51.71.14-28.48-23.05-51.77-51.7-51.91Z"/>
  <path class="cls-1" d="M279.95,101.94c10.99,0,20.14,9.16,19.98,20.03-.16,10.9-9.12,19.76-19.96,19.76-10.97,0-20.13-9.19-19.98-20.05.15-10.91,9.08-19.74,19.97-19.74Z"/>
</svg>