<?xml version="1.0" encoding="UTF-8"?>
<svg id="Capa_1" data-name="Capa 1" xmlns="http://www.w3.org/2000/svg" viewBox="0 0 800 420">
  <defs>
    <style>
      .cls-1 {
        fill: none;
        stroke: #4b2383;
        stroke-miterlimit: 10;
        stroke-width: 2px;
      }

      .cls-2 {
        fill: #b153e5;
      }

      .cls-2, .cls-3 {
        stroke-width: 0px;
      }

      .cls-3 {
        fill: #4b2383;
      }
    </style>
  </defs>
  <path class="cls-3" d="M380.91,130.2h-1.01v62.54h10.09v4.03h-35.31v-4.03h10.09v-62.54h-1.01c-4.44,0-7.48.44-9.13,1.31-1.65.87-2.77,2.82-3.38,5.85l-2.02,9.99h-3.93l-2.72-16.95c0-1.34.3-2.34.91-2.98.61-.64,1.26-1.01,1.97-1.11.71-.1,1.8-.15,3.28-.15h47.21c1.48,0,2.57.05,3.28.15.71.1,1.36.47,1.97,1.11.61.64.91,1.63.91,2.98l-2.72,16.95h-3.93l-2.02-9.99c-.61-3.03-1.73-4.98-3.38-5.85-1.65-.87-4.69-1.31-9.13-1.31Z"/>
  <path class="cls-3" d="M453.54,146.34v39.24c0,1.82.44,3.24,1.31,4.29.87,1.04,2.22,1.56,4.03,1.56s3.9-.97,6.26-2.93l1.82,2.42c-5.38,4.91-10.76,7.36-16.14,7.36-6.39,0-10.32-2.99-11.8-8.98-3.5,5.99-8.64,8.98-15.43,8.98-7.73,0-13.62-2.5-17.65-7.52-4.03-5.01-6.05-11.4-6.05-19.17s2.17-14.17,6.51-19.22c4.34-5.04,10.41-7.57,18.21-7.57,5.98,0,10.59,2.39,13.82,7.16v-5.65h15.13ZM418.34,156.22c-1.88,3.77-2.82,8.88-2.82,15.33s.94,11.57,2.82,15.33c1.88,3.77,4.76,5.65,8.62,5.65s6.83-1.9,8.88-5.7c2.05-3.8,3.08-8.89,3.08-15.28s-1.03-11.48-3.08-15.28c-2.05-3.8-5.01-5.7-8.88-5.7s-6.74,1.88-8.62,5.65Z"/>
  <path class="cls-3" d="M472.21,146.34c5.51,0,10.49,1.68,14.93,5.04,2.56-2.42,5.18-4.12,7.87-5.09,2.69-.97,6.14-1.46,10.34-1.46s7.63,1.33,10.29,3.99c2.66,2.66,3.99,6.27,3.99,10.84v25.93c0,1.82.44,3.24,1.31,4.29.87,1.04,2.22,1.56,4.03,1.56s3.9-.97,6.26-2.93l1.81,2.42c-5.38,4.91-10.76,7.36-16.14,7.36-8.27,0-12.41-4.94-12.41-14.83v-25.93c0-2.08-.64-3.7-1.92-4.84-1.28-1.14-3.04-1.72-5.3-1.72s-4.47.91-6.66,2.73c-2.19,1.81-3.28,4.17-3.28,7.06v36.01h-15.13v-46.4c-3.03,0-5.72.5-8.07,1.51l-1.41-3.73c2.89-1.21,6.05-1.82,9.48-1.82Z"/>
  <path class="cls-3" d="M538.28,146.34c5.51,0,10.49,1.68,14.93,5.04,2.56-2.42,5.18-4.12,7.87-5.09,2.69-.97,6.14-1.46,10.34-1.46s7.63,1.33,10.29,3.99c2.66,2.66,3.99,6.27,3.99,10.84v25.93c0,1.82.44,3.24,1.31,4.29.87,1.04,2.22,1.56,4.03,1.56s3.9-.97,6.26-2.93l1.81,2.42c-5.38,4.91-10.76,7.36-16.14,7.36-8.27,0-12.41-4.94-12.41-14.83v-25.93c0-2.08-.64-3.7-1.92-4.84-1.28-1.14-3.04-1.72-5.3-1.72s-4.47.91-6.66,2.73c-2.19,1.81-3.28,4.17-3.28,7.06v36.01h-15.13v-46.4c-3.03,0-5.72.5-8.07,1.51l-1.41-3.73c2.89-1.21,6.05-1.82,9.48-1.82Z"/>
  <path class="cls-3" d="M600.57,146.64c2.99-1.21,5.95-1.82,8.88-1.82s5.33.59,7.21,1.77c1.88,1.18,2.82,2.64,2.82,4.39v30.57c0,2.15.67,3.78,2.02,4.89,1.34,1.11,3.03,1.66,5.04,1.66,4.3,0,7.98-1.85,11.05-5.55,3.06-3.7,4.59-8.44,4.59-14.22,0-3.23-.64-6.62-1.92-10.19-1.21.81-2.76,1.21-4.64,1.21s-3.58-.76-5.09-2.27c-1.51-1.51-2.27-3.34-2.27-5.5s.76-3.98,2.27-5.5c1.51-1.51,3.41-2.27,5.7-2.27s4.25.86,5.9,2.57c1.65,1.72,2.84,3.99,3.58,6.81,1.21,4.91,1.82,10.34,1.82,16.29s-.69,11.92-2.07,17.91c-1.38,5.99-3.2,11.13-5.45,15.43-2.25,4.3-4.79,8.04-7.62,11.2-5.79,6.32-11.67,9.48-17.65,9.48-1.61,0-2.94-.35-3.99-1.06-1.04-.71-2.24-2-3.58-3.88l-5.25-7.26,2.62-2.72c3.23.54,6.05.81,8.47.81,7.53,0,13.69-2.39,18.46-7.16,4.77-4.78,8.54-12.54,11.3-23.3-4.17,11.57-11.84,17.35-23,17.35-4.3,0-7.95-1.46-10.95-4.39-2.99-2.92-4.49-7.08-4.49-12.46v-29.76c-3.7.94-6.52,2.59-8.47,4.94l-2.72-3.13c1.95-2.02,4.42-3.63,7.41-4.84Z"/>
  <path class="cls-2" d="M358.11,223.83v-4.03h24.01l20.07,66.58h5.04v4.03h-26.03v-4.03h5.85l-3.73-12.41h-27.44l-3.63,12.41h5.85v4.03h-17.05v-4.03h5.04l18.86-62.54h-6.86ZM369.51,228.16l-12.21,41.26h24.61l-12.41-41.26Z"/>
  <path class="cls-2" d="M405.02,241.78c2.89-1.21,6-1.82,9.33-1.82s6.09.4,8.27,1.21c2.18.81,4.45,2.09,6.81,3.83,2.42-2.42,4.89-4.12,7.41-5.09,2.52-.97,5.5-1.46,8.93-1.46,6.86,0,11.43,2.62,13.72,7.87,2.62-2.89,5.26-4.93,7.92-6.1,2.66-1.17,6.12-1.77,10.39-1.77s7.73,1.33,10.39,3.99c2.66,2.66,3.99,6.27,3.99,10.84v25.93c0,1.82.44,3.24,1.31,4.29.87,1.04,2.22,1.56,4.03,1.56s3.9-.97,6.25-2.93l1.82,2.42c-5.38,4.91-10.76,7.36-16.14,7.36-8.27,0-12.41-4.94-12.41-14.83v-25.93c0-2.08-.61-3.7-1.82-4.84-1.21-1.14-2.88-1.72-4.99-1.72s-4.2.91-6.26,2.73c-2.05,1.81-3.08,4.17-3.08,7.06v36.01h-15.13v-39.24c0-2.08-.61-3.7-1.82-4.84-1.21-1.14-2.87-1.72-4.99-1.72s-4.2.91-6.25,2.73c-2.05,1.81-3.08,4.17-3.08,7.06v36.01h-15.13v-46.4c-3.03,0-5.72.5-8.07,1.51l-1.41-3.73Z"/>
  <path class="cls-2" d="M517.7,238.45c6.32,0,9.48,2.72,9.48,8.17v32.58c0,1.82.44,3.24,1.31,4.29.87,1.04,2.22,1.56,4.03,1.56s3.9-.97,6.25-2.93l1.82,2.42c-5.38,4.91-10.76,7.36-16.14,7.36-8.27,0-12.41-4.94-12.41-14.83v-33.79c-3.7.94-6.52,2.59-8.47,4.94l-2.72-3.13c1.95-2.02,4.42-3.63,7.41-4.84,2.99-1.21,6.14-1.82,9.43-1.82ZM513.92,228.52c-1.58-1.58-2.37-3.48-2.37-5.7s.79-4.12,2.37-5.7c1.58-1.58,3.48-2.37,5.7-2.37s4.12.79,5.7,2.37c1.58,1.58,2.37,3.48,2.37,5.7s-.79,4.12-2.37,5.7c-1.58,1.58-3.48,2.37-5.7,2.37s-4.12-.79-5.7-2.37Z"/>
  <path class="cls-2" d="M594.47,244.61v33.59c0,2.15.67,3.78,2.02,4.89,1.34,1.11,3.03,1.66,5.04,1.66,4.24,0,7.9-2.2,11-6.61,3.09-4.4,4.64-9.8,4.64-16.19,0-3.23-.64-6.62-1.92-10.19-1.21.81-2.76,1.21-4.64,1.21s-3.58-.76-5.09-2.27c-1.51-1.51-2.27-3.34-2.27-5.5s.76-3.98,2.27-5.5c1.51-1.51,3.41-2.27,5.7-2.27s4.25.86,5.9,2.57c1.65,1.72,2.84,3.99,3.58,6.81,1.21,4.91,1.81,9.72,1.81,14.43s-.57,8.81-1.71,12.31c-1.14,3.5-2.62,6.34-4.44,8.53-1.82,2.19-3.87,4.05-6.15,5.6-4.1,2.82-8.21,4.24-12.31,4.24-8,0-13.52-2.62-16.54-7.87-2.22,2.56-4.84,4.51-7.87,5.85-3.03,1.34-5.82,2.02-8.37,2.02-5.72,0-10.24-1.43-13.57-4.29-3.33-2.86-4.99-7.04-4.99-12.56v-31.78c-3.7.94-6.52,2.59-8.47,4.94l-2.72-3.13c1.95-2.02,4.42-3.63,7.41-4.84,2.99-1.21,5.95-1.82,8.88-1.82s5.33.59,7.21,1.77c1.88,1.18,2.82,2.64,2.82,4.39v33.59c0,2.15.67,3.78,2.02,4.89,1.34,1.11,3.03,1.66,5.04,1.66,4.57,0,8.14-2.25,10.69-6.76-.07-.61-.1-1.58-.1-2.92v-31.78c-3.7.94-6.52,2.59-8.47,4.94l-2.72-3.13c1.95-2.02,4.42-3.63,7.41-4.84,2.99-1.21,5.95-1.82,8.88-1.82s5.33.59,7.21,1.77c1.88,1.18,2.83,2.64,2.83,4.39Z"/>
  <path class="cls-2" d="M642.68,238.45c6.32,0,9.48,2.72,9.48,8.17v32.58c0,1.82.44,3.24,1.31,4.29.87,1.04,2.22,1.56,4.03,1.56s3.9-.97,6.25-2.93l1.82,2.42c-5.38,4.91-10.76,7.36-16.14,7.36-8.27,0-12.41-4.94-12.41-14.83v-33.79c-3.7.94-6.52,2.59-8.47,4.94l-2.72-3.13c1.95-2.02,4.42-3.63,7.41-4.84,2.99-1.21,6.14-1.82,9.43-1.82ZM638.9,228.52c-1.58-1.58-2.37-3.48-2.37-5.7s.79-4.12,2.37-5.7c1.58-1.58,3.48-2.37,5.7-2.37s4.12.79,5.7,2.37c1.58,1.58,2.37,3.48,2.37,5.7s-.79,4.12-2.37,5.7c-1.58,1.58-3.48,2.37-5.7,2.37s-4.12-.79-5.7-2.37Z"/>
  <path class="cls-3" d="M661.22,190.27c0,2.06,1,3.86,3.01,5.39,2.01,1.53,4.6,2.3,7.77,2.3s5.68-.77,7.53-2.3c1.85-1.53,2.78-3.57,2.78-6.11,0-3.22-1.93-5.89-5.79-8.01l-11.73-6.26c-6.77-3.65-10.15-8.85-10.15-15.62,0-4.33,1.59-8.06,4.76-11.18,3.17-3.12,7.9-4.68,14.19-4.68,4.23,0,8.25.85,12.05,2.54,3.81,1.69,5.71,3.7,5.71,6.03,0,.9-.29,1.93-.87,3.09l-3.81,7.29-2.78-.87v-6.66c0-2.38-1.04-4.25-3.13-5.63-2.09-1.37-4.57-2.06-7.45-2.06s-5.09.85-6.62,2.54c-1.53,1.69-2.3,3.62-2.3,5.79,0,4.33,1.96,7.53,5.87,9.59l10.07,5.31c7.66,4.02,11.5,9.3,11.5,15.86,0,4.97-1.86,8.72-5.59,11.26-3.73,2.54-8.44,3.81-14.15,3.81-4.28,0-8.4-.85-12.37-2.54-3.96-1.69-5.95-3.7-5.95-6.03,0-.9.29-1.93.87-3.09l3.81-7.29,2.77.87v6.66Z"/>
  <path class="cls-2" d="M669.25,280.8c0,2.06,1,3.86,3.01,5.39,2.01,1.53,4.6,2.3,7.77,2.3s5.68-.77,7.53-2.3c1.85-1.53,2.78-3.57,2.78-6.11,0-3.22-1.93-5.89-5.79-8.01l-11.73-6.26c-6.77-3.65-10.15-8.85-10.15-15.62,0-4.33,1.59-8.06,4.76-11.18,3.17-3.12,7.9-4.68,14.19-4.68,4.23,0,8.25.85,12.05,2.54,3.81,1.69,5.71,3.7,5.71,6.03,0,.9-.29,1.93-.87,3.09l-3.81,7.29-2.78-.87v-6.66c0-2.38-1.04-4.25-3.13-5.63-2.09-1.37-4.57-2.06-7.45-2.06s-5.09.85-6.62,2.54c-1.53,1.69-2.3,3.62-2.3,5.79,0,4.33,1.96,7.53,5.87,9.59l10.07,5.31c7.66,4.02,11.5,9.3,11.5,15.86,0,4.97-1.86,8.72-5.59,11.26-3.73,2.54-8.44,3.81-14.15,3.81-4.28,0-8.4-.85-12.37-2.54-3.96-1.69-5.95-3.7-5.95-6.03,0-.9.29-1.93.87-3.09l3.81-7.29,2.77.87v6.66Z"/>
  <path class="cls-3" d="M343.18,354.49c-7.97-3.47-20.49-10.38-19.78-20.42.68-4.94,4.53-9.27,8.98-11.23,6.21-2.58,13.13-2.84,19.61-3,10.42-.13,20.72.67,30.98,1.57,17.69,1.45,43.4,4.98,61.27,7.31,20.15,2.67,41.11,4.9,61.33,6.24,30.74,2.05,61.57,2.67,92.37,3.32,30.71.36,61.51.15,92.1-2.6,21.59-2.28,56.19-6.14,70.35-23.7,3.18-3.89,5.18-8.67,6.36-13.63l.49.09c-.75,5.1-2.48,10.2-5.56,14.5-24.03,34.11-124.3,31.06-163.86,30.04-50.91-1.5-103.05-7.81-153.88-11.49-20.48-1.62-40.97-3.54-61.39-5.67-10.16-.97-20.38-1.93-30.56-2.1-5.05-.03-10.15.05-14.94,1.07-4.57.77-8.97,3.75-10.67,8.03-1.35,3.29.04,6.94,2.14,9.65,3.86,4.99,9.35,8.56,14.85,11.57,0,0-.2.46-.2.46h0Z"/>
  <g>
    <g>
      <path class="cls-1" d="M170.39,220.57s-26.71,14.16-81.72,4.31c0,0,63.18,2.94,68.52,65.81,0,0,18.98-47.9,13.2-70.12Z"/>
      <path class="cls-1" d="M125.19,236.83s18.13.88,45.2-16.27c0,0-24.07,23.56-30.23,28.32"/>
      <path class="cls-1" d="M146.66,258.81s16.71-16.86,23.72-38.24c0,0-5.1,35.13-16.42,53.46"/>
      <path class="cls-1" d="M88.67,224.87s14.06,53.75-27.17,84.67c0,0-12.79-14.63-10.19-37.19,2.6-22.56,34.56-47.5,37.36-47.49Z"/>
      <path class="cls-1" d="M59.14,306.31s35.35-27.33,23.68-77.65"/>
      <path class="cls-1" d="M56.82,302.31s26.8-22.75,19.91-68.75"/>
      <path class="cls-1" d="M54.43,296.99s20.12-20.5,16.67-58.19"/>
      <path class="cls-1" d="M52.09,289.11s14.39-19.24,12.7-42.9"/>
      <path class="cls-1" d="M90.23,232.46s2.88-2.47,17.33-3.79"/>
      <path class="cls-1" d="M90.78,237.72s5.79-6.13,25.55-5.73"/>
      <path class="cls-1" d="M91.08,243.37s9.15-8.61,34.11-6.53"/>
      <path class="cls-1" d="M91.08,248.88c1.96-.25,20.71-10.95,41.27-7.33"/>
      <path class="cls-1" d="M90.41,256.97s11.91-10.79,48.27-9.67"/>
      <path class="cls-1" d="M89.17,264.95s26.29-13.41,57.49-7.5"/>
      <path class="cls-1" d="M86.2,274.05s39.78-16.35,65.35-6.39"/>
      <path class="cls-1" d="M83.28,282.42s53.71-16.7,71.69-4.91"/>
      <path class="cls-1" d="M75.61,295.63s44.64-22.54,80.73-11.67"/>
      <path class="cls-1" d="M157.19,290.68c-36.25-9.69-95.69,18.87-95.69,18.87,0,0,23.25,30,50.99,28,28.76-2.08,44.71-46.87,44.71-46.87Z"/>
      <path class="cls-1" d="M67.31,316.37s5.7-4.4,4.08-11.15"/>
      <path class="cls-1" d="M77.79,302.68s4.9,9.67-5.04,18.45"/>
      <path class="cls-1" d="M83.28,300.64s6.98,11.55-5.49,24.58"/>
      <path class="cls-1" d="M88.65,298.77s11.22,13.8-5.36,30.26"/>
      <path class="cls-1" d="M95.06,296.7s14.53,16.47-5.24,35.97"/>
      <path class="cls-1" d="M95.06,334.89s23.98-15.97,6.99-40.24"/>
      <path class="cls-1" d="M108.13,293.07s21.31,18.59-5.05,43.98"/>
      <path class="cls-1" d="M115.98,291.33s23.64,23.27-3.5,46.22"/>
      <path class="cls-1" d="M124.25,289.91s21.15,18.25,1.28,43.59"/>
      <path class="cls-1" d="M132.35,288.68s14.85,10.68,5.89,34.3"/>
      <path class="cls-1" d="M141.11,288.68s10.46,6.35,6.13,22.12"/>
      <path class="cls-1" d="M148.56,289.11s7.14,4.38,5.2,9.66"/>
    </g>
    <g>
      <path class="cls-1" d="M171.55,222.4s-114.33-31.8-125.57-64.22c-11.24-32.42-9.99-67.65,11.91-62.86,21.9,4.79,87.14,57.88,113.66,127.08Z"/>
      <path class="cls-1" d="M103.72,155.78c6.41,1.85,67.82,66.62,67.82,66.62,0,0-41.52-62.15-64.76-80.96"/>
      <path class="cls-1" d="M106.71,179.14c1.34,5.11,64.83,43.26,64.83,43.26,0,0-35,12.59-86.12.81,0,0-27.87-3.75-34.21-28.07,0,0-3.71-10.05-2.89-14.22.82-4.17,1.69-6.31,1.07-11.27-.62-4.95-1.19-6.92-1.19-6.92"/>
      <path class="cls-1" d="M103.62,151.42s-32.59-12.74-56.06,10.21"/>
      <path class="cls-1" d="M103.62,161.63s-28.41-8.81-49.07,7.66"/>
      <path class="cls-1" d="M104.84,171.43s-23.75-7.29-38.81,7.71c0,0,5.43,45.66,57.88,48.29"/>
      <path class="cls-1" d="M111.19,191.23s-21.27-4.3-15.39,3.91"/>
      <path class="cls-1" d="M106.71,128.58s-9.36,2.64-13.45,19.31"/>
      <path class="cls-1" d="M99.65,122.13s-14.24-1.55-17.36,25.76"/>
      <path class="cls-1" d="M85.43,110.56s-24.75,14.73-15.35,38.03"/>
      <path class="cls-1" d="M74.76,103.22s-28.05,9.61-14.64,49.55"/>
      <path class="cls-1" d="M57.88,95.32s-21.08,10.97-3.97,61.07"/>
      <path class="cls-1" d="M162.26,224.87s-18.94-1.49-27.97-14.42"/>
      <path class="cls-1" d="M148.28,227.15s-10.12,4.48-29.92-22.59c0,0-27.7-40.71-7.17-71.65"/>
      <path class="cls-1" d="M125.95,227.94s-6.46,2.11-19.23-28.06"/>
      <path class="cls-1" d="M91.14,192.62c5.93,24.31,32.76,34.81,32.76,34.81,0,0-1.15-.04-3.08-.36-8.43-1.39-31.83-8.06-41.01-39.78-2.86-9.9,26.9-5.37,26.9-5.37"/>
      <path class="cls-1" d="M56.57,172.03s-5.37,54.02,67.33,55.4"/>
    </g>
  </g>
  <g>
    <g>
      <path class="cls-1" d="M179.04,221.64s26.71,14.16,81.72,4.31c0,0-63.18,2.94-68.52,65.81,0,0-18.98-47.9-13.2-70.12Z"/>
      <path class="cls-1" d="M224.24,237.91s-18.13.88-45.2-16.27c0,0,24.07,23.56,30.23,28.32"/>
      <path class="cls-1" d="M202.76,259.88s-16.71-16.86-23.72-38.24c0,0,5.1,35.13,16.42,53.46"/>
      <path class="cls-1" d="M260.75,225.95s-14.06,53.75,27.17,84.67c0,0,12.79-14.63,10.19-37.19-2.6-22.56-34.56-47.5-37.36-47.49Z"/>
      <path class="cls-1" d="M290.28,307.39s-35.35-27.33-23.68-77.65"/>
      <path class="cls-1" d="M292.6,303.38s-26.8-22.75-19.91-68.75"/>
      <path class="cls-1" d="M295,298.07s-20.12-20.5-16.67-58.19"/>
      <path class="cls-1" d="M297.34,290.19s-14.39-19.24-12.7-42.9"/>
      <path class="cls-1" d="M259.19,233.54s-2.88-2.47-17.33-3.79"/>
      <path class="cls-1" d="M258.64,238.79s-5.79-6.13-25.55-5.73"/>
      <path class="cls-1" d="M258.35,244.45s-9.15-8.61-34.11-6.53"/>
      <path class="cls-1" d="M258.35,249.96c-1.96-.25-20.71-10.95-41.27-7.33"/>
      <path class="cls-1" d="M259.02,258.05s-11.91-10.79-48.27-9.67"/>
      <path class="cls-1" d="M260.25,266.03s-26.29-13.41-57.49-7.5"/>
      <path class="cls-1" d="M263.23,275.13s-39.78-16.35-65.35-6.39"/>
      <path class="cls-1" d="M266.14,283.49s-53.71-16.7-71.69-4.91"/>
      <path class="cls-1" d="M273.81,296.7s-44.64-22.54-80.73-11.67"/>
      <path class="cls-1" d="M192.24,291.76c36.25-9.69,95.69,18.87,95.69,18.87,0,0-23.25,30-50.99,28-28.76-2.08-44.71-46.87-44.71-46.87Z"/>
      <path class="cls-1" d="M282.12,317.45s-5.7-4.4-4.08-11.15"/>
      <path class="cls-1" d="M271.63,303.76s-4.9,9.67,5.04,18.45"/>
      <path class="cls-1" d="M266.14,301.72s-6.98,11.55,5.49,24.58"/>
      <path class="cls-1" d="M260.78,299.84s-11.22,13.8,5.36,30.26"/>
      <path class="cls-1" d="M254.37,297.77s-14.53,16.47,5.24,35.97"/>
      <path class="cls-1" d="M254.37,335.97s-23.98-15.97-6.99-40.24"/>
      <path class="cls-1" d="M241.29,294.15s-21.31,18.59,5.05,43.98"/>
      <path class="cls-1" d="M233.45,292.4s-23.64,23.27,3.5,46.22"/>
      <path class="cls-1" d="M225.18,290.98s-21.15,18.25-1.28,43.59"/>
      <path class="cls-1" d="M217.08,289.75s-14.85,10.68-5.89,34.3"/>
      <path class="cls-1" d="M208.31,289.76s-10.46,6.35-6.13,22.12"/>
      <path class="cls-1" d="M200.86,290.19s-7.14,4.38-5.2,9.66"/>
    </g>
    <g>
      <path class="cls-1" d="M177.88,223.48s114.33-31.8,125.57-64.22c11.24-32.42,9.99-67.65-11.91-62.86-21.9,4.79-87.14,57.88-113.66,127.08Z"/>
      <path class="cls-1" d="M245.7,156.85c-6.41,1.85-67.82,66.62-67.82,66.62,0,0,41.52-62.15,64.76-80.96"/>
      <path class="cls-1" d="M242.71,180.21c-1.34,5.11-64.83,43.26-64.83,43.26,0,0,35,12.59,86.12.81,0,0,27.87-3.75,34.21-28.07,0,0,3.71-10.05,2.89-14.22-.82-4.17-1.69-6.31-1.07-11.27.62-4.95,1.19-6.92,1.19-6.92"/>
      <path class="cls-1" d="M245.81,152.5s32.59-12.74,56.06,10.21"/>
      <path class="cls-1" d="M245.81,162.71s28.41-8.81,49.07,7.66"/>
      <path class="cls-1" d="M244.59,172.5s23.75-7.29,38.81,7.71c0,0-5.43,45.66-57.88,48.29"/>
      <path class="cls-1" d="M238.23,192.3s21.27-4.3,15.39,3.91"/>
      <path class="cls-1" d="M242.71,129.66s9.36,2.64,13.45,19.31"/>
      <path class="cls-1" d="M249.77,123.21s14.24-1.55,17.36,25.76"/>
      <path class="cls-1" d="M263.99,111.63s24.75,14.73,15.35,38.03"/>
      <path class="cls-1" d="M274.66,104.3s28.05,9.61,14.64,49.55"/>
      <path class="cls-1" d="M291.54,96.39s21.08,10.97,3.97,61.07"/>
      <path class="cls-1" d="M187.16,225.95s18.94-1.49,27.97-14.42"/>
      <path class="cls-1" d="M201.15,228.23s10.12,4.48,29.92-22.59c0,0,27.7-40.71,7.17-71.65"/>
      <path class="cls-1" d="M223.48,229.02s6.46,2.11,19.23-28.06"/>
      <path class="cls-1" d="M258.29,193.7c-5.93,24.31-32.76,34.81-32.76,34.81,0,0,1.15-.04,3.08-.36,8.43-1.39,31.83-8.06,41.01-39.78,2.86-9.9-26.9-5.37-26.9-5.37"/>
      <path class="cls-1" d="M292.85,173.11s5.37,54.02-67.33,55.4"/>
    </g>
  </g>
  <path class="cls-3" d="M198.25,144.69c-6.36-2.46-17.31,29.74-23.62,50.42-.05,0-.1-.01-.15-.02-6.26-20.63-17.45-53.88-23.92-51.39-9.32,3.6-3.33,10.02-3.33,10.02,0,0,4.26-8.91,6.26-3.56,1.26,3.38,10.84,28.87,17.72,47.21-2.63,4.19-4.17,13.41-3.51,20.65.83,9.18,1.5,18.33,1.67,41.44.11,14.92-.17,24.48,5.28,24.48,7.57,0,4.73-10.85,5.01-23.92.28-13.07.31-31.81,1.39-42,.7-6.63-.63-15.77-3.26-20.25,6.87-18.29,16.26-43.29,17.51-46.63,2-5.35,6.26,3.56,6.26,3.56,0,0,5.99-6.42-3.33-10.02Z"/>
</svg>