<?xml version="1.0" encoding="UTF-8"?>
<svg id="Capa_1" data-name="Capa 1" xmlns="http://www.w3.org/2000/svg" viewBox="0 0 800 420">
  <defs>
    <style>
      .cls-1 {
        fill: none;
        stroke: #fff;
        stroke-miterlimit: 10;
        stroke-width: 2px;
      }

      .cls-2 {
        fill: #fff;
        stroke-width: 0px;
      }
    </style>
  </defs>
  <path class="cls-2" d="M368.34,111.18h-1.06v65.55h10.57v4.23h-37v-4.23h10.57v-65.55h-1.06c-4.65,0-7.84.46-9.57,1.37-1.73.92-2.91,2.96-3.54,6.13l-2.11,10.47h-4.12l-2.85-17.76c0-1.41.32-2.45.95-3.12.63-.67,1.32-1.06,2.06-1.16.74-.11,1.89-.16,3.44-.16h49.48c1.55,0,2.7.05,3.44.16.74.11,1.43.49,2.06,1.16.63.67.95,1.71.95,3.12l-2.85,17.76h-4.12l-2.11-10.47c-.63-3.17-1.82-5.22-3.54-6.13-1.73-.91-4.92-1.37-9.57-1.37Z"/>
  <path class="cls-2" d="M444.46,128.1v41.13c0,1.9.46,3.4,1.37,4.49.91,1.09,2.33,1.64,4.23,1.64s4.09-1.02,6.56-3.07l1.9,2.54c-5.64,5.15-11.28,7.72-16.92,7.72-6.7,0-10.82-3.13-12.37-9.41-3.66,6.27-9.06,9.41-16.18,9.41-8.11,0-14.27-2.62-18.5-7.88-4.23-5.25-6.34-11.95-6.34-20.09s2.27-14.85,6.82-20.14c4.55-5.29,10.91-7.93,19.08-7.93,6.27,0,11.1,2.5,14.48,7.51v-5.92h15.86ZM407.57,138.46c-1.97,3.95-2.96,9.3-2.96,16.07s.99,12.12,2.96,16.07c1.97,3.95,4.99,5.92,9.04,5.92s7.15-1.99,9.3-5.97c2.15-3.98,3.22-9.32,3.22-16.02s-1.08-12.03-3.22-16.02c-2.15-3.98-5.25-5.97-9.3-5.97s-7.07,1.97-9.04,5.92Z"/>
  <path class="cls-2" d="M464.02,128.1c5.78,0,10.99,1.76,15.65,5.29,2.68-2.54,5.43-4.32,8.25-5.34,2.82-1.02,6.43-1.53,10.84-1.53s8,1.39,10.78,4.18c2.78,2.78,4.18,6.57,4.18,11.36v27.17c0,1.9.46,3.4,1.37,4.49.91,1.09,2.33,1.64,4.23,1.64s4.09-1.02,6.56-3.07l1.9,2.54c-5.64,5.15-11.28,7.72-16.91,7.72-8.67,0-13-5.18-13-15.54v-27.17c0-2.18-.67-3.87-2.01-5.07-1.34-1.2-3.19-1.8-5.55-1.8s-4.69.95-6.98,2.86c-2.29,1.9-3.44,4.37-3.44,7.4v37.74h-15.86v-48.63c-3.17,0-5.99.53-8.46,1.59l-1.48-3.91c3.03-1.27,6.34-1.9,9.94-1.9Z"/>
  <path class="cls-2" d="M533.26,128.1c5.78,0,10.99,1.76,15.65,5.29,2.68-2.54,5.43-4.32,8.25-5.34,2.82-1.02,6.43-1.53,10.84-1.53s8,1.39,10.78,4.18c2.78,2.78,4.18,6.57,4.18,11.36v27.17c0,1.9.46,3.4,1.37,4.49.91,1.09,2.33,1.64,4.23,1.64s4.09-1.02,6.56-3.07l1.9,2.54c-5.64,5.15-11.28,7.72-16.91,7.72-8.67,0-13-5.18-13-15.54v-27.17c0-2.18-.67-3.87-2.01-5.07-1.34-1.2-3.19-1.8-5.55-1.8s-4.69.95-6.98,2.86c-2.29,1.9-3.44,4.37-3.44,7.4v37.74h-15.86v-48.63c-3.17,0-5.99.53-8.46,1.59l-1.48-3.91c3.03-1.27,6.34-1.9,9.94-1.9Z"/>
  <path class="cls-2" d="M598.55,128.41c3.13-1.27,6.24-1.9,9.3-1.9s5.59.62,7.56,1.85c1.97,1.23,2.96,2.77,2.96,4.6v32.03c0,2.26.7,3.96,2.11,5.13,1.41,1.16,3.17,1.74,5.29,1.74,4.51,0,8.37-1.94,11.58-5.82,3.21-3.87,4.81-8.84,4.81-14.91,0-3.38-.67-6.94-2.01-10.68-1.27.85-2.89,1.27-4.86,1.27s-3.75-.79-5.34-2.38c-1.59-1.59-2.38-3.5-2.38-5.76s.79-4.18,2.38-5.76c1.59-1.59,3.58-2.38,5.97-2.38s4.46.9,6.19,2.7c1.73,1.8,2.98,4.18,3.75,7.14,1.27,5.14,1.9,10.84,1.9,17.07s-.72,12.49-2.17,18.77c-1.45,6.27-3.35,11.66-5.71,16.17-2.36,4.51-5.02,8.42-7.98,11.73-6.06,6.62-12.23,9.94-18.5,9.94-1.69,0-3.08-.37-4.18-1.11-1.09-.74-2.34-2.1-3.75-4.07l-5.5-7.61,2.75-2.85c3.38.56,6.34.85,8.88.85,7.89,0,14.34-2.5,19.35-7.51,5-5,8.95-13.14,11.84-24.42-4.37,12.12-12.41,18.18-24.1,18.18-4.51,0-8.33-1.53-11.47-4.6-3.14-3.07-4.7-7.42-4.7-13.06v-31.19c-3.88.99-6.84,2.71-8.88,5.18l-2.85-3.28c2.04-2.11,4.63-3.81,7.77-5.07Z"/>
  <path class="cls-2" d="M344.45,209.3v-4.23h25.16l21.04,69.77h5.29v4.23h-27.28v-4.23h6.13l-3.91-13h-28.76l-3.81,13h6.13v4.23h-17.87v-4.23h5.29l19.77-65.55h-7.19ZM356.4,213.85l-12.79,43.24h25.8l-13-43.24Z"/>
  <path class="cls-2" d="M393.61,228.12c3.03-1.27,6.29-1.9,9.78-1.9s6.38.42,8.67,1.27c2.29.85,4.67,2.19,7.14,4.02,2.54-2.54,5.13-4.32,7.77-5.34,2.64-1.02,5.76-1.53,9.36-1.53,7.19,0,11.98,2.75,14.38,8.25,2.75-3.03,5.51-5.16,8.3-6.4,2.78-1.23,6.41-1.85,10.89-1.85s8.1,1.39,10.89,4.18c2.78,2.78,4.18,6.57,4.18,11.36v27.17c0,1.9.46,3.4,1.37,4.49.91,1.09,2.33,1.64,4.23,1.64s4.09-1.02,6.55-3.07l1.9,2.54c-5.64,5.15-11.28,7.72-16.91,7.72-8.67,0-13-5.18-13-15.54v-27.17c0-2.18-.63-3.87-1.9-5.07-1.27-1.2-3.01-1.8-5.23-1.8s-4.41.95-6.56,2.86c-2.15,1.9-3.22,4.37-3.22,7.4v37.74h-15.86v-41.13c0-2.18-.63-3.87-1.9-5.07-1.27-1.2-3.01-1.8-5.23-1.8s-4.4.95-6.55,2.86c-2.15,1.9-3.22,4.37-3.22,7.4v37.74h-15.86v-48.63c-3.17,0-5.99.53-8.46,1.59l-1.48-3.91Z"/>
  <path class="cls-2" d="M511.7,224.63c6.62,0,9.94,2.85,9.94,8.56v34.15c0,1.9.46,3.4,1.37,4.49.91,1.09,2.33,1.64,4.23,1.64s4.09-1.02,6.55-3.07l1.9,2.54c-5.64,5.15-11.28,7.72-16.91,7.72-8.67,0-13-5.18-13-15.54v-35.42c-3.88.99-6.84,2.71-8.88,5.18l-2.85-3.28c2.04-2.11,4.63-3.81,7.77-5.07,3.13-1.27,6.43-1.9,9.88-1.9ZM507.73,214.22c-1.66-1.66-2.48-3.65-2.48-5.97s.83-4.32,2.48-5.97c1.66-1.65,3.65-2.48,5.97-2.48s4.32.83,5.97,2.48c1.66,1.66,2.49,3.65,2.49,5.97s-.83,4.32-2.49,5.97c-1.66,1.66-3.65,2.48-5.97,2.48s-4.32-.83-5.97-2.48Z"/>
  <path class="cls-2" d="M592.15,231.08v35.2c0,2.26.7,3.97,2.11,5.13,1.41,1.16,3.17,1.74,5.28,1.74,4.44,0,8.28-2.31,11.52-6.92,3.24-4.62,4.86-10.27,4.86-16.97,0-3.38-.67-6.94-2.01-10.68-1.27.85-2.89,1.27-4.86,1.27s-3.75-.79-5.34-2.38c-1.59-1.59-2.38-3.5-2.38-5.76s.79-4.18,2.38-5.76c1.59-1.59,3.58-2.38,5.97-2.38s4.46.9,6.19,2.7c1.73,1.8,2.98,4.18,3.75,7.14,1.27,5.14,1.9,10.19,1.9,15.12s-.6,9.23-1.8,12.9c-1.2,3.67-2.75,6.65-4.65,8.93-1.9,2.29-4.05,4.25-6.45,5.87-4.3,2.96-8.6,4.44-12.9,4.44-8.39,0-14.17-2.75-17.34-8.25-2.33,2.68-5.07,4.72-8.25,6.13-3.17,1.41-6.1,2.11-8.78,2.11-5.99,0-10.73-1.5-14.22-4.49-3.49-2.99-5.23-7.38-5.23-13.16v-33.3c-3.88.99-6.84,2.71-8.88,5.18l-2.85-3.28c2.04-2.11,4.63-3.81,7.77-5.07,3.13-1.27,6.24-1.9,9.3-1.9s5.59.62,7.56,1.85c1.97,1.23,2.96,2.77,2.96,4.6v35.2c0,2.26.7,3.97,2.11,5.13,1.41,1.16,3.17,1.74,5.29,1.74,4.79,0,8.53-2.36,11.21-7.08-.07-.63-.11-1.65-.11-3.07v-33.3c-3.88.99-6.84,2.71-8.88,5.18l-2.85-3.28c2.04-2.11,4.63-3.81,7.77-5.07,3.13-1.27,6.24-1.9,9.3-1.9s5.59.62,7.56,1.85c1.97,1.23,2.96,2.77,2.96,4.6Z"/>
  <path class="cls-2" d="M642.68,224.63c6.62,0,9.94,2.85,9.94,8.56v34.15c0,1.9.46,3.4,1.37,4.49.91,1.09,2.33,1.64,4.23,1.64s4.09-1.02,6.55-3.07l1.9,2.54c-5.64,5.15-11.28,7.72-16.91,7.72-8.67,0-13-5.18-13-15.54v-35.42c-3.88.99-6.84,2.71-8.88,5.18l-2.85-3.28c2.04-2.11,4.63-3.81,7.77-5.07,3.13-1.27,6.43-1.9,9.88-1.9ZM638.72,214.22c-1.66-1.66-2.48-3.65-2.48-5.97s.83-4.32,2.48-5.97c1.66-1.65,3.65-2.48,5.97-2.48s4.32.83,5.97,2.48c1.66,1.66,2.49,3.65,2.49,5.97s-.83,4.32-2.49,5.97-3.65,2.48-5.97,2.48-4.32-.83-5.97-2.48Z"/>
  <path class="cls-2" d="M662.1,174.14c0,2.16,1.05,4.04,3.16,5.65,2.1,1.61,4.82,2.41,8.14,2.41s5.95-.8,7.89-2.41c1.94-1.61,2.91-3.74,2.91-6.4,0-3.38-2.02-6.18-6.07-8.39l-12.3-6.56c-7.09-3.82-10.64-9.28-10.64-16.37,0-4.54,1.66-8.45,4.99-11.72,3.32-3.27,8.28-4.9,14.87-4.9,4.43,0,8.64.89,12.63,2.66,3.99,1.77,5.98,3.88,5.98,6.32,0,.94-.31,2.02-.91,3.24l-3.99,7.64-2.91-.91v-6.98c0-2.49-1.09-4.46-3.28-5.9-2.19-1.44-4.79-2.16-7.81-2.16s-5.33.89-6.94,2.66c-1.61,1.77-2.41,3.8-2.41,6.07,0,4.54,2.05,7.89,6.15,10.05l10.55,5.57c8.03,4.21,12.05,9.75,12.05,16.62,0,5.21-1.95,9.14-5.86,11.8-3.91,2.66-8.85,3.99-14.83,3.99-4.49,0-8.81-.89-12.96-2.66-4.15-1.77-6.23-3.88-6.23-6.31,0-.94.3-2.02.91-3.24l3.99-7.64,2.91.91v6.98Z"/>
  <path class="cls-2" d="M670.52,269.02c0,2.16,1.05,4.04,3.16,5.65,2.1,1.61,4.82,2.41,8.14,2.41s5.95-.8,7.89-2.41c1.94-1.61,2.91-3.74,2.91-6.4,0-3.38-2.02-6.18-6.07-8.39l-12.3-6.56c-7.09-3.82-10.64-9.28-10.64-16.37,0-4.54,1.66-8.45,4.99-11.72,3.32-3.27,8.28-4.9,14.87-4.9,4.43,0,8.64.89,12.63,2.66,3.99,1.77,5.98,3.88,5.98,6.32,0,.94-.31,2.02-.91,3.24l-3.99,7.64-2.91-.91v-6.98c0-2.49-1.09-4.46-3.28-5.9-2.19-1.44-4.79-2.16-7.81-2.16s-5.33.89-6.94,2.66c-1.61,1.77-2.41,3.8-2.41,6.07,0,4.54,2.05,7.89,6.15,10.05l10.55,5.57c8.03,4.21,12.05,9.75,12.05,16.62,0,5.21-1.95,9.14-5.86,11.8-3.91,2.66-8.85,3.99-14.83,3.99-4.49,0-8.81-.89-12.96-2.66-4.15-1.77-6.23-3.88-6.23-6.31,0-.94.3-2.02.91-3.24l3.99-7.64,2.91.91v6.98Z"/>
  <path class="cls-2" d="M328.81,346.23c-8.31-3.63-21.45-10.93-20.68-21.38.72-5.15,4.73-9.66,9.38-11.7,6.5-2.7,13.73-2.96,20.52-3.12,10.91-.13,21.7.72,32.46,1.65,18.53,1.53,45.48,5.21,64.22,7.62,21.12,2.77,43.09,5.1,64.28,6.51,53.66,3.12,107.52,4.74,161.25,2.9,16.05-.65,32.12-1.69,48.02-3.94,15.63-2.32,31.85-5.34,45.74-13.07,9.51-5.25,16.45-13.45,18.72-24.3,0,0,.49.09.49.09-.79,5.34-2.62,10.68-5.84,15.18-25.11,35.63-130.31,32.43-171.69,31.39-32.35-.9-64.6-3.67-96.82-6.56-29.92-2.72-66.89-5.52-96.65-8.22-16.08-1.47-32.09-3.4-48.16-4.6-5.34-.4-10.68-.73-16-.79-6.57.03-13.19-.04-19.28,2.21-3.4,1.31-6.29,4.18-7.61,7.4-1.91,4.85,1.44,9.77,4.84,13.1,3.8,3.69,8.34,6.68,13.02,9.18,0,0-.2.46-.2.46h0Z"/>
  <g>
    <g>
      <path class="cls-1" d="M147.72,205.89s-27.99,14.84-85.64,4.51c0,0,66.22,3.08,71.81,68.97,0,0,19.89-50.2,13.83-73.48Z"/>
      <path class="cls-1" d="M100.35,222.94s19,.92,47.37-17.05c0,0-25.22,24.69-31.68,29.68"/>
      <path class="cls-1" d="M122.85,245.96s17.51-17.66,24.86-40.07c0,0-5.34,36.81-17.21,56.03"/>
      <path class="cls-1" d="M62.08,210.4s14.74,56.32-28.48,88.74c0,0-13.41-15.33-10.68-38.97,2.73-23.64,36.22-49.78,39.16-49.77Z"/>
      <path class="cls-1" d="M31.14,295.75s37.04-28.64,24.82-81.37"/>
      <path class="cls-1" d="M28.7,291.55s28.09-23.84,20.87-72.05"/>
      <path class="cls-1" d="M26.19,285.98s21.08-21.48,17.47-60.99"/>
      <path class="cls-1" d="M23.74,277.72s15.08-20.16,13.3-44.96"/>
      <path class="cls-1" d="M63.72,218.35s3.01-2.59,18.16-3.97"/>
      <path class="cls-1" d="M64.29,223.86s6.07-6.42,26.78-6"/>
      <path class="cls-1" d="M64.6,229.78s9.59-9.02,35.75-6.85"/>
      <path class="cls-1" d="M64.6,235.56c2.06-.26,21.7-11.48,43.25-7.68"/>
      <path class="cls-1" d="M63.9,244.04s12.48-11.31,50.58-10.14"/>
      <path class="cls-1" d="M62.61,252.4s27.55-14.05,60.25-7.86"/>
      <path class="cls-1" d="M59.49,261.94s41.69-17.14,68.49-6.7"/>
      <path class="cls-1" d="M56.43,270.7s56.28-17.5,75.13-5.14"/>
      <path class="cls-1" d="M48.39,284.55s46.79-23.62,84.61-12.23"/>
      <path class="cls-1" d="M133.89,279.37c-37.99-10.15-100.28,19.77-100.28,19.77,0,0,24.37,31.44,53.43,29.34,30.15-2.18,46.85-49.11,46.85-49.11Z"/>
      <path class="cls-1" d="M39.69,306.29s5.97-4.61,4.27-11.68"/>
      <path class="cls-1" d="M50.68,291.94s5.14,10.14-5.28,19.34"/>
      <path class="cls-1" d="M56.43,289.8s7.32,12.11-5.76,25.76"/>
      <path class="cls-1" d="M62.05,287.84s11.75,14.46-5.62,31.71"/>
      <path class="cls-1" d="M68.77,285.67s15.23,17.26-5.49,37.69"/>
      <path class="cls-1" d="M68.77,325.7s25.13-16.74,7.33-42.17"/>
      <path class="cls-1" d="M82.47,281.87s22.34,19.48-5.29,46.09"/>
      <path class="cls-1" d="M90.7,280.04s24.78,24.38-3.66,48.44"/>
      <path class="cls-1" d="M99.36,278.55s22.17,19.12,1.34,45.68"/>
      <path class="cls-1" d="M107.85,277.27s15.56,11.19,6.18,35.95"/>
      <path class="cls-1" d="M117.04,277.27s10.97,6.65,6.43,23.18"/>
      <path class="cls-1" d="M124.84,277.72s7.48,4.6,5.45,10.12"/>
    </g>
    <g>
      <path class="cls-1" d="M148.93,207.81S29.12,174.48,17.33,140.51c-11.78-33.97-10.47-70.89,12.48-65.88,22.95,5.02,91.33,60.66,119.12,133.18Z"/>
      <path class="cls-1" d="M77.85,137.99c6.72,1.94,71.08,69.82,71.08,69.82,0,0-43.51-65.13-67.87-84.84"/>
      <path class="cls-1" d="M80.99,162.47c1.4,5.36,67.94,45.34,67.94,45.34,0,0-36.68,13.2-90.25.85,0,0-29.21-3.92-35.85-29.41,0,0-3.89-10.53-3.03-14.9.86-4.37,1.77-6.61,1.12-11.81-.65-5.19-1.24-7.25-1.24-7.25"/>
      <path class="cls-1" d="M77.74,133.42s-34.16-13.36-58.75,10.7"/>
      <path class="cls-1" d="M77.74,144.12s-29.78-9.24-51.42,8.02"/>
      <path class="cls-1" d="M79.02,154.39s-24.89-7.64-40.67,8.08c0,0,5.7,47.85,60.66,50.61"/>
      <path class="cls-1" d="M85.68,175.14s-22.29-4.51-16.12,4.1"/>
      <path class="cls-1" d="M80.99,109.49s-9.81,2.77-14.1,20.24"/>
      <path class="cls-1" d="M73.59,102.73s-14.92-1.63-18.2,26.99"/>
      <path class="cls-1" d="M58.68,90.6s-25.94,15.43-16.09,39.85"/>
      <path class="cls-1" d="M47.51,82.91s-29.39,10.07-15.34,51.93"/>
      <path class="cls-1" d="M29.82,74.63s-22.1,11.5-4.16,64"/>
      <path class="cls-1" d="M139.2,210.4s-19.85-1.56-29.31-15.11"/>
      <path class="cls-1" d="M124.55,212.79s-10.6,4.7-31.35-23.67c0,0-29.03-42.66-7.51-75.08"/>
      <path class="cls-1" d="M101.15,213.62s-6.77,2.21-20.16-29.41"/>
      <path class="cls-1" d="M64.67,176.6c6.21,25.47,34.34,36.48,34.34,36.48,0,0-1.2-.04-3.23-.38-8.83-1.45-33.36-8.45-42.98-41.69-3-10.37,28.19-5.63,28.19-5.63"/>
      <path class="cls-1" d="M28.44,155.02s-5.63,56.61,70.56,58.06"/>
    </g>
  </g>
  <g>
    <g>
      <path class="cls-1" d="M156.78,207.01s27.99,14.84,85.64,4.51c0,0-66.22,3.08-71.81,68.97,0,0-19.89-50.2-13.83-73.48Z"/>
      <path class="cls-1" d="M204.15,224.06s-19,.92-47.37-17.05c0,0,25.22,24.69,31.68,29.68"/>
      <path class="cls-1" d="M181.65,247.09s-17.51-17.66-24.86-40.07c0,0,5.34,36.81,17.21,56.03"/>
      <path class="cls-1" d="M242.42,211.53s-14.74,56.32,28.48,88.74c0,0,13.41-15.33,10.68-38.97-2.73-23.64-36.22-49.78-39.16-49.77Z"/>
      <path class="cls-1" d="M273.36,296.88s-37.04-28.64-24.82-81.37"/>
      <path class="cls-1" d="M275.8,292.68s-28.09-23.84-20.87-72.05"/>
      <path class="cls-1" d="M278.31,287.11s-21.08-21.48-17.47-60.99"/>
      <path class="cls-1" d="M280.76,278.85s-15.08-20.16-13.3-44.96"/>
      <path class="cls-1" d="M240.78,219.48s-3.01-2.59-18.16-3.97"/>
      <path class="cls-1" d="M240.21,224.99s-6.07-6.42-26.78-6"/>
      <path class="cls-1" d="M239.9,230.91s-9.59-9.02-35.75-6.85"/>
      <path class="cls-1" d="M239.9,236.69c-2.06-.26-21.7-11.48-43.25-7.68"/>
      <path class="cls-1" d="M240.6,245.16s-12.48-11.31-50.58-10.14"/>
      <path class="cls-1" d="M241.89,253.53s-27.55-14.05-60.25-7.86"/>
      <path class="cls-1" d="M245.01,263.07s-41.69-17.14-68.49-6.7"/>
      <path class="cls-1" d="M248.07,271.83s-56.28-17.5-75.13-5.14"/>
      <path class="cls-1" d="M256.11,285.68s-46.79-23.62-84.61-12.23"/>
      <path class="cls-1" d="M170.61,280.5c37.99-10.15,100.28,19.77,100.28,19.77,0,0-24.37,31.44-53.43,29.34-30.15-2.18-46.85-49.11-46.85-49.11Z"/>
      <path class="cls-1" d="M264.81,307.42s-5.97-4.61-4.27-11.68"/>
      <path class="cls-1" d="M253.82,293.07s-5.14,10.14,5.28,19.34"/>
      <path class="cls-1" d="M248.07,290.93s-7.32,12.11,5.76,25.76"/>
      <path class="cls-1" d="M242.45,288.97s-11.75,14.46,5.62,31.71"/>
      <path class="cls-1" d="M235.73,286.8s-15.23,17.26,5.49,37.69"/>
      <path class="cls-1" d="M235.73,326.83s-25.13-16.74-7.33-42.17"/>
      <path class="cls-1" d="M222.03,283s-22.34,19.48,5.29,46.09"/>
      <path class="cls-1" d="M213.8,281.17s-24.78,24.38,3.66,48.44"/>
      <path class="cls-1" d="M205.14,279.68s-22.17,19.12-1.34,45.68"/>
      <path class="cls-1" d="M196.65,278.39s-15.56,11.19-6.18,35.95"/>
      <path class="cls-1" d="M187.46,278.4s-10.97,6.65-6.43,23.18"/>
      <path class="cls-1" d="M179.66,278.85s-7.48,4.6-5.45,10.12"/>
    </g>
    <g>
      <path class="cls-1" d="M155.57,208.94s119.81-33.33,131.6-67.3c11.78-33.97,10.47-70.89-12.48-65.88-22.95,5.02-91.33,60.66-119.12,133.18Z"/>
      <path class="cls-1" d="M226.65,139.12c-6.72,1.94-71.08,69.82-71.08,69.82,0,0,43.51-65.13,67.87-84.84"/>
      <path class="cls-1" d="M223.51,163.6c-1.4,5.36-67.94,45.34-67.94,45.34,0,0,36.68,13.2,90.25.85,0,0,29.21-3.92,35.85-29.41,0,0,3.89-10.53,3.03-14.9s-1.77-6.61-1.12-11.81c.65-5.19,1.24-7.25,1.24-7.25"/>
      <path class="cls-1" d="M226.76,134.55s34.16-13.36,58.75,10.7"/>
      <path class="cls-1" d="M226.76,145.25s29.78-9.24,51.42,8.02"/>
      <path class="cls-1" d="M225.48,155.52s24.89-7.64,40.67,8.08c0,0-5.7,47.85-60.66,50.61"/>
      <path class="cls-1" d="M218.82,176.27s22.29-4.51,16.12,4.1"/>
      <path class="cls-1" d="M223.51,110.61s9.81,2.77,14.1,20.24"/>
      <path class="cls-1" d="M230.91,103.86s14.92-1.63,18.2,26.99"/>
      <path class="cls-1" d="M245.82,91.73s25.94,15.43,16.09,39.85"/>
      <path class="cls-1" d="M256.99,84.04s29.39,10.07,15.34,51.93"/>
      <path class="cls-1" d="M274.69,75.75s22.1,11.5,4.16,64"/>
      <path class="cls-1" d="M165.3,211.53s19.85-1.56,29.31-15.11"/>
      <path class="cls-1" d="M179.95,213.92s10.6,4.7,31.35-23.67c0,0,29.03-42.66,7.51-75.08"/>
      <path class="cls-1" d="M203.36,214.75s6.77,2.21,20.16-29.41"/>
      <path class="cls-1" d="M239.83,177.73c-6.21,25.47-34.34,36.48-34.34,36.48,0,0,1.2-.04,3.23-.38,8.83-1.45,33.36-8.45,42.98-41.69,3-10.37-28.19-5.63-28.19-5.63"/>
      <path class="cls-1" d="M276.06,156.15s5.63,56.61-70.56,58.06"/>
    </g>
  </g>
  <path class="cls-2" d="M176.92,126.37c-6.67-2.58-18.14,31.16-24.75,52.84-.05,0-.11-.01-.16-.02-6.56-21.62-18.29-56.47-25.06-53.85-9.77,3.77-3.49,10.5-3.49,10.5,0,0,4.47-9.34,6.56-3.74,1.32,3.54,11.36,30.26,18.58,49.48-2.76,4.4-4.37,14.05-3.68,21.64.87,9.62,1.57,19.21,1.75,43.43.12,15.64-.18,25.65,5.54,25.65,7.94,0,4.96-11.37,5.25-25.07.29-13.7.33-33.33,1.46-44.01.74-6.95-.66-16.53-3.41-21.22,7.2-19.17,17.04-45.37,18.35-48.87,2.1-5.6,6.56,3.74,6.56,3.74,0,0,6.28-6.72-3.49-10.5Z"/>
</svg>