<?xml version="1.0" encoding="UTF-8"?>
<svg id="Capa_1" data-name="Capa 1" xmlns="http://www.w3.org/2000/svg" viewBox="0 0 800 713">
  <defs>
    <style>
      .cls-1 {
        fill: #fff;
        stroke-width: 0px;
      }

      .cls-2 {
        fill: none;
        stroke: #fff;
        stroke-miterlimit: 10;
        stroke-width: 4px;
      }
    </style>
  </defs>
  <g>
    <g>
      <path class="cls-2" d="M389.41,365.23s-61.44,32.57-187.99,9.91c0,0,145.35,6.77,157.62,151.39,0,0,43.65-110.19,30.36-161.3Z"/>
      <path class="cls-2" d="M285.43,402.65s41.72,2.03,103.98-37.42c0,0-55.36,54.19-69.53,65.14"/>
      <path class="cls-2" d="M334.83,453.2s38.44-38.78,54.58-87.96c0,0-11.73,80.81-37.78,122.98"/>
      <path class="cls-2" d="M201.43,375.14s32.35,123.64-62.51,194.79c0,0-29.43-33.65-23.44-85.54,5.99-51.89,79.5-109.28,85.95-109.24Z"/>
      <path class="cls-2" d="M133.5,562.48s81.31-62.86,54.48-178.62"/>
      <path class="cls-2" d="M128.16,553.27s61.66-52.33,45.81-158.15"/>
      <path class="cls-2" d="M122.65,541.05s46.28-47.15,38.36-133.87"/>
      <path class="cls-2" d="M117.27,522.91s33.1-44.26,29.21-98.69"/>
      <path class="cls-2" d="M205.02,392.59s6.61-5.69,39.86-8.72"/>
      <path class="cls-2" d="M206.28,404.68s13.32-14.1,58.78-13.17"/>
      <path class="cls-2" d="M206.96,417.69s21.06-19.8,78.47-15.03"/>
      <path class="cls-2" d="M206.96,430.37c4.52-.58,47.63-25.2,94.94-16.86"/>
      <path class="cls-2" d="M205.42,448.97s27.39-24.82,111.03-22.25"/>
      <path class="cls-2" d="M202.59,467.33s60.47-30.84,132.25-17.25"/>
      <path class="cls-2" d="M195.73,488.28s91.51-37.62,150.34-14.71"/>
      <path class="cls-2" d="M189.04,507.51s123.55-38.42,164.91-11.29"/>
      <path class="cls-2" d="M171.38,537.9s102.7-51.84,185.72-26.85"/>
      <path class="cls-2" d="M359.05,526.53c-83.38-22.28-220.13,43.4-220.13,43.4,0,0,53.49,69.02,117.29,64.41,66.17-4.78,102.85-107.81,102.85-107.81Z"/>
      <path class="cls-2" d="M152.28,585.63s13.1-10.13,9.38-25.65"/>
      <path class="cls-2" d="M176.4,554.13s11.28,22.26-11.59,42.45"/>
      <path class="cls-2" d="M189.04,549.43s16.07,26.58-12.63,56.55"/>
      <path class="cls-2" d="M201.37,545.13s25.8,31.73-12.34,69.6"/>
      <path class="cls-2" d="M216.11,540.37s33.43,37.89-12.06,82.74"/>
      <path class="cls-2" d="M216.11,628.23s55.16-36.74,16.09-92.57"/>
      <path class="cls-2" d="M246.19,532.02s49.03,42.75-11.62,101.18"/>
      <path class="cls-2" d="M264.25,528.01s54.39,53.52-8.04,106.33"/>
      <path class="cls-2" d="M283.27,524.74s48.66,41.98,2.93,100.27"/>
      <path class="cls-2" d="M301.9,521.91s34.15,24.57,13.56,78.9"/>
      <path class="cls-2" d="M322.06,521.93s24.07,14.6,14.11,50.88"/>
      <path class="cls-2" d="M339.2,522.91s16.42,10.09,11.96,22.22"/>
    </g>
    <g>
      <path class="cls-2" d="M392.08,369.45S129.07,296.29,103.2,221.71c-25.87-74.58-22.99-155.62,27.4-144.61,50.39,11.01,200.47,133.15,261.47,292.34Z"/>
      <path class="cls-2" d="M236.05,216.18c14.75,4.26,156.03,153.26,156.03,153.26,0,0-95.51-142.97-148.98-186.24"/>
      <path class="cls-2" d="M242.93,269.93c3.08,11.76,149.14,99.52,149.14,99.52,0,0-80.51,28.97-198.1,1.87,0,0-64.12-8.62-78.7-64.57,0,0-8.54-23.12-6.64-32.72,1.89-9.6,3.89-14.52,2.45-25.91-1.43-11.4-2.73-15.92-2.73-15.92"/>
      <path class="cls-2" d="M235.81,206.16s-74.98-29.32-128.96,23.49"/>
      <path class="cls-2" d="M235.81,229.65s-65.37-20.27-112.87,17.62"/>
      <path class="cls-2" d="M238.61,252.18s-54.63-16.77-89.28,17.74c0,0,12.5,105.03,133.15,111.09"/>
      <path class="cls-2" d="M253.24,297.74s-48.92-9.9-35.39,9.01"/>
      <path class="cls-2" d="M242.93,153.62s-21.54,6.08-30.94,44.42"/>
      <path class="cls-2" d="M226.7,138.79s-32.75-3.57-39.95,59.25"/>
      <path class="cls-2" d="M193.97,112.16s-56.94,33.88-35.32,87.48"/>
      <path class="cls-2" d="M169.44,95.29s-64.52,22.1-33.68,114"/>
      <path class="cls-2" d="M130.6,77.1s-48.5,25.24-9.14,140.49"/>
      <path class="cls-2" d="M370.72,375.14s-43.57-3.42-64.35-33.17"/>
      <path class="cls-2" d="M338.55,380.38s-23.27,10.31-68.82-51.96c0,0-63.72-93.64-16.49-164.82"/>
      <path class="cls-2" d="M287.18,382.2s-14.85,4.85-44.24-64.55"/>
      <path class="cls-2" d="M207.11,300.94c13.64,55.91,75.37,80.08,75.37,80.08,0,0-2.64-.09-7.09-.82-19.39-3.19-73.23-18.55-94.34-91.51-6.59-22.77,61.89-12.36,61.89-12.36"/>
      <path class="cls-2" d="M127.59,253.58s-12.35,124.27,154.89,127.44"/>
    </g>
  </g>
  <g>
    <g>
      <path class="cls-2" d="M409.29,367.4s61.37,32.69,187.96,10.29c0,0-145.36,6.47-157.93,151.07,0,0-43.43-110.28-30.04-161.36Z"/>
      <path class="cls-2" d="M513.2,405.04s-41.72,1.94-103.91-37.63c0,0,55.25,54.3,69.4,65.28"/>
      <path class="cls-2" d="M463.69,455.48s-38.36-38.85-54.4-88.07c0,0,11.57,80.83,37.54,123.06"/>
      <path class="cls-2" d="M597.25,377.69s-32.6,123.57,62.12,194.91c0,0,29.5-33.59,23.61-85.5-5.89-51.9-79.28-109.44-85.73-109.41Z"/>
      <path class="cls-2" d="M664.8,565.17s-81.19-63.03-54.12-178.73"/>
      <path class="cls-2" d="M670.16,555.97s-61.55-52.45-45.49-158.24"/>
      <path class="cls-2" d="M675.7,543.76s-46.19-47.25-38.09-133.95"/>
      <path class="cls-2" d="M681.12,525.63s-33.01-44.33-29.01-98.75"/>
      <path class="cls-2" d="M593.62,395.14s-6.6-5.7-39.84-8.81"/>
      <path class="cls-2" d="M592.34,407.22s-13.29-14.13-58.75-13.29"/>
      <path class="cls-2" d="M591.63,420.23s-21.02-19.84-78.44-15.19"/>
      <path class="cls-2" d="M591.61,432.91c-4.51-.59-47.58-25.3-94.9-17.05"/>
      <path class="cls-2" d="M593.11,451.52s-27.34-24.88-110.99-22.48"/>
      <path class="cls-2" d="M595.91,469.88s-60.41-30.96-132.21-17.52"/>
      <path class="cls-2" d="M602.72,490.84s-91.43-37.81-150.31-15.01"/>
      <path class="cls-2" d="M609.38,510.09s-123.47-38.67-164.89-11.63"/>
      <path class="cls-2" d="M626.97,540.52s-102.6-52.05-185.67-27.22"/>
      <path class="cls-2" d="M439.33,528.76c83.43-22.11,220.05,43.84,220.05,43.84,0,0-53.63,68.91-117.42,64.18-66.16-4.91-102.63-108.02-102.63-108.02Z"/>
      <path class="cls-2" d="M645.98,588.28s-13.08-10.15-9.33-25.67"/>
      <path class="cls-2" d="M621.92,556.73s-11.33,22.23,11.5,42.47"/>
      <path class="cls-2" d="M609.29,552.01s-16.12,26.54,12.52,56.58"/>
      <path class="cls-2" d="M596.97,547.68s-25.87,31.68,12.2,69.62"/>
      <path class="cls-2" d="M582.23,542.89s-33.5,37.82,11.89,82.76"/>
      <path class="cls-2" d="M582.06,630.75s-55.09-36.86-15.9-92.6"/>
      <path class="cls-2" d="M552.17,534.49s-49.12,42.66,11.41,101.2"/>
      <path class="cls-2" d="M534.13,530.44s-54.5,53.41,7.83,106.34"/>
      <path class="cls-2" d="M515.11,527.13s-48.74,41.88-3.14,100.26"/>
      <path class="cls-2" d="M496.48,524.27s-34.2,24.5-13.72,78.88"/>
      <path class="cls-2" d="M476.32,524.24s-24.1,14.55-14.21,50.85"/>
      <path class="cls-2" d="M459.18,525.19s-16.44,10.05-12,22.19"/>
    </g>
    <g>
      <path class="cls-2" d="M406.62,371.61s263.15-72.63,289.17-147.15c26.02-74.52,23.3-155.57-27.11-144.67-50.41,10.91-200.74,132.75-262.06,291.82Z"/>
      <path class="cls-2" d="M562.95,218.67c-14.76,4.24-156.34,152.95-156.34,152.95,0,0,95.79-142.77,149.35-185.94"/>
      <path class="cls-2" d="M555.96,272.4c-3.1,11.76-149.34,99.22-149.34,99.22,0,0,80.45,29.13,198.1,2.27,0,0,64.14-8.49,78.83-64.41,0,0,8.58-23.1,6.71-32.7-1.87-9.6-3.86-14.53-2.4-25.92,1.46-11.39,2.76-15.92,2.76-15.92"/>
      <path class="cls-2" d="M563.21,208.65s75.04-29.17,128.91,23.75"/>
      <path class="cls-2" d="M563.16,232.14s65.41-20.14,112.84,17.84"/>
      <path class="cls-2" d="M560.32,254.66s54.66-16.66,89.24,17.92c0,0-12.71,105.01-133.37,110.82"/>
      <path class="cls-2" d="M545.59,300.19s48.94-9.8,35.37,9.08"/>
      <path class="cls-2" d="M556.19,156.09s21.53,6.12,30.85,44.49"/>
      <path class="cls-2" d="M572.46,141.29s32.76-3.5,39.83,59.33"/>
      <path class="cls-2" d="M605.24,114.73s56.87,33.99,35.14,87.55"/>
      <path class="cls-2" d="M629.81,97.91s64.48,22.23,33.45,114.06"/>
      <path class="cls-2" d="M668.68,79.8s48.45,25.33,8.85,140.51"/>
      <path class="cls-2" d="M427.96,377.35s43.58-3.33,64.41-33.04"/>
      <path class="cls-2" d="M460.12,382.66s23.25,10.36,68.92-51.82c0,0,63.91-93.52,16.82-164.78"/>
      <path class="cls-2" d="M511.49,384.58s14.84,4.88,44.37-64.46"/>
      <path class="cls-2" d="M591.72,303.49c-13.75,55.89-75.53,79.92-75.53,79.92,0,0,2.64-.09,7.09-.81,19.39-3.15,73.26-18.4,94.53-91.32,6.64-22.76-61.86-12.49-61.86-12.49"/>
      <path class="cls-2" d="M671.34,256.28s12.1,124.29-155.15,127.13"/>
    </g>
  </g>
  <path class="cls-1" d="M453.51,190.69c-14.64-5.66-39.83,68.41-54.34,115.98-.12-.01-.23-.03-.35-.04-14.39-47.45-40.14-123.95-55.02-118.21-21.45,8.28-7.66,23.05-7.66,23.05,0,0,9.8-20.5,14.41-8.2,2.91,7.77,24.93,66.42,40.77,108.61-6.06,9.65-9.58,30.85-8.07,47.5,1.92,21.11,3.45,42.17,3.84,95.33.25,34.33-.39,56.31,12.16,56.31,17.42,0,10.88-24.95,11.52-55.03.64-30.07.72-73.17,3.2-96.61,1.61-15.25-1.44-36.28-7.49-46.57,15.8-42.08,37.4-99.59,40.27-107.28,4.6-12.3,14.41,8.2,14.41,8.2,0,0,13.79-14.76-7.66-23.05Z"/>
</svg>