<?xml version="1.0" encoding="UTF-8"?>
<svg id="Capa_1" data-name="Capa 1" xmlns="http://www.w3.org/2000/svg" viewBox="0 0 1575.86 1077">
  <defs>
    <style>
      .cls-1 {
        fill: #4b2383;
        stroke-width: 0px;
      }
    </style>
  </defs>
  <path class="cls-1" d="M1455.19,171.43c-27.91,0-52.87,12.65-69.46,32.52-16.59-19.87-41.55-32.52-69.46-32.52-22.47,0-43.02,8.2-58.84,21.76-16.09-14.75-37.54-23.76-61.09-23.76-25.49,0-48.51,10.55-64.95,27.51-16.37-16.38-38.99-26.51-63.97-26.51-27.91,0-52.87,12.65-69.46,32.52-16.59-19.87-41.55-32.52-69.46-32.52-23.25,0-44.44,8.77-60.46,23.19-16.02-14.41-37.22-23.19-60.46-23.19-25.49,0-48.51,10.55-64.95,27.51-16.37-16.38-38.99-26.51-63.97-26.51-27.91,0-52.87,12.65-69.46,32.52-16.59-19.87-41.55-32.52-69.46-32.52-22.47,0-43.02,8.2-58.84,21.76-16.09-14.75-37.54-23.76-61.09-23.76-25.49,0-48.51,10.55-64.95,27.51-16.37-16.38-38.99-26.51-63.97-26.51-27.91,0-52.87,12.65-69.46,32.52-16.59-19.87-41.55-32.52-69.46-32.52-18.4,0-35.52,5.5-49.8,14.94v151.01c.77.51,1.54,1.01,2.33,1.49v392.51c-.78.28-1.56.58-2.33.89v168.6c10.17,3.96,21.24,6.14,32.81,6.14,27.91,0,52.87-12.65,69.46-32.52,16.59,19.87,41.55,32.52,69.46,32.52,25.49,0,48.51-10.55,64.95-27.51,16.37,16.38,38.99,26.51,63.97,26.51,22.47,0,43.02-8.2,58.84-21.76,16.09,14.75,37.54,23.76,61.09,23.76,27.91,0,52.87-12.65,69.46-32.52,16.59,19.87,41.55,32.52,69.46,32.52,25.49,0,48.51-10.55,64.95-27.51,16.37,16.38,38.99,26.51,63.97,26.51,23.25,0,44.44-8.77,60.46-23.19,16.02,14.41,37.22,23.19,60.46,23.19,27.91,0,52.87-12.65,69.46-32.52,16.59,19.87,41.55,32.52,69.46,32.52,25.49,0,48.51-10.55,64.95-27.51,16.37,16.38,38.99,26.51,63.97,26.51,22.47,0,43.02-8.2,58.84-21.76,16.09,14.75,37.54,23.76,61.09,23.76,27.91,0,52.87-12.65,69.46-32.52,16.59,19.87,41.55,32.52,69.46,32.52,10.5,0,20.57-1.79,29.95-5.08V172.35c-4.23-.61-8.56-.93-12.96-.93Z"/>
</svg>