<?xml version="1.0" encoding="UTF-8"?>
<svg id="Capa_1" data-name="Capa 1" xmlns="http://www.w3.org/2000/svg" viewBox="0 0 394 413">
  <defs>
    <style>
      .cls-1 {
        fill: #b153e5;
        stroke-width: 0px;
      }
    </style>
  </defs>
  <path class="cls-1" d="M154.53,196.27c-9.05-7.81-19.01-14.39-29.03-20.83-15.43-9.93-31.07-19.54-47.38-28.02-4.97-2.58-9.81-5.42-14.87-7.8-2.87-1.34-2.87-2.56-1.18-4.91,3.56-4.93,7.59-9.38,12.03-13.51,1.69-1.57,3.12-1.53,5.12-.53,26.52,13.26,52.24,27.91,76.73,44.65,6.69,4.57,13.22,9.37,19.82,14.06,12.67,10.31,25.38,20.58,36.94,32.15,16.63,16.65,31.47,34.65,42.09,55.86,1.39,2.78,1.1,3.95-1.56,5.34-4.81,2.52-9.47,5.34-14.14,8.13-2.2,1.32-3.39,1.47-5.04-1.23-8.46-13.81-18.3-26.53-29.3-38.53-14.81-16.15-31.06-30.52-48.31-43.9-.55-.43-1.28-.64-1.93-.95Z"/>
  <path class="cls-1" d="M121.76,226.52c-14.91-11.96-30.49-22.98-46.74-33.03-7.27-4.5-14.61-8.89-22.04-13.12-2.24-1.28-3.03-2.75-2.99-5.27.08-5.18.74-10.27,1.57-15.37.53-3.25,1.54-3.37,4.24-1.99,21.56,11.01,42.41,23.21,62.61,36.52,8,5.27,15.78,10.86,23.67,16.3,13.81,11.04,27.59,22.11,40.12,34.64,13.28,13.27,25.15,27.66,35.2,43.55,1.96,3.1,1.49,4.59-1.52,6.5-5.72,3.63-11.23,7.6-16.64,11.67-2.26,1.7-3.34,1.93-4.96-.84-18.37-31.39-43.58-56.62-71.75-79.16-.22-.18-.52-.28-.78-.41Z"/>
  <path class="cls-1" d="M188.34,165.1c-13.81-10.78-28.27-20.56-43.27-29.67-9.52-5.78-19.07-11.52-28.74-17.04-6.16-3.52-12.48-6.77-18.89-10.22,23.85-11.64,71.96-9.74,92.18,34.16.36-.19.91-.28,1.05-.57,10.37-20.8,27.07-33.26,49.76-37.86,2.67-.26,4.24-.05,2.7,3.42-9.72,21.92-22.75,41.39-41.43,56.75q-6.56,5.4-13.37,1.02Z"/>
  <path class="cls-1" d="M68.74,315.94c-1.6,1.82-2.87,3.22-4.09,4.67-2.22,2.63-1.4,4.18,1.76,4.93,3.94.94,7.94.85,11.87.24,21.22-3.27,42.56-3.56,63.96-3.15,5.18.1,10.31.47,15.37,1.52,10.82,2.24,21.64,2.39,32.5.27,12.85-2.51,25.87-1.72,38.83-1.78,30.53-.14,61.06.01,91.59.07,1.32,0,2.68,0,3.97.26,3.58.71,5.47,3.25,5.17,6.62-.28,3.11-2.39,5.29-5.84,5.55-1.03.08-2.06.06-3.1.06-77.73-.03-155.45-.09-233.18-.04-9.26,0-18.27-1.44-27.16-3.74-2.77-.71-5.42-2.23-7.84-3.81-3.61-2.34-3.24-6.89.86-9.43,4.49-2.78,9.39-4.21,15.33-2.24Z"/>
  <path class="cls-1" d="M267.29,103.91c7.14,1.26,13.3,3.25,19.31,5.73,2.22.92,1.4,2.37.82,3.98-8.92,25.15-20.82,48.62-38.34,69-5.02,5.84-10.59,11.08-16.31,16.2-2.01,1.8-3.33,2.11-5.44-.03-4.72-4.78-9.66-9.37-14.73-13.79-2.58-2.25-1.92-3.42.41-5.25,19.06-14.94,33.03-33.94,43.72-55.46,2.88-5.8,5.24-11.85,7.81-17.8.67-1.55,1.17-3.24,2.74-2.58Z"/>
  <path class="cls-1" d="M257.99,234.75c-4.38-5.64-8.55-11.18-12.91-16.54-1.47-1.81-1.82-2.82.24-4.56,25.41-21.41,42.45-48.7,55.21-78.96,1.49-3.53,2.94-7.08,4.24-10.67.65-1.79,1.34-2.07,2.77-.79,4.2,3.77,7.7,8.13,10.92,12.73.77,1.1.61,2.08.22,3.3-8.55,26.87-20.9,51.78-38.51,73.89-6.5,8.16-13.82,15.62-22.17,21.6Z"/>
  <path class="cls-1" d="M55.24,205.03c2.06-.6,3.23,1.09,4.63,1.95,17.04,10.5,33.57,21.74,49.36,34.05,17.34,14.09,33.98,28.92,48.23,46.22,1.58,1.92,4.1,3.36,4.11,6.34l.06-.11c-4.38-1.81-8.02-4.86-12.1-7.18-19.34-10.99-38.48-22.32-56.93-34.76-15.8-12.28-30.38-25.56-37.13-45.26-.14-.4-.08-.87-.11-1.31l-.12.04Z"/>
  <path class="cls-1" d="M328.79,169.07c2.18,27.1-6.4,50.09-25.97,68.83-7.91,7.58-16.74,13.96-25.8,20.04-1.49,1-3.5,3.88-5.19.15-1.26-2.78-5.42-5.13-.69-8.81,14.58-11.32,26.35-25.26,36.49-40.6,7.81-11.82,14.46-24.29,19.98-37.35.33-.78.79-1.51,1.18-2.27Z"/>
  <path class="cls-1" d="M161.57,293.6c.18-.05.37-.09.55-.14,0,.11.02.23.03.34-.17-.11-.35-.21-.52-.32,0,0-.06.11-.06.11Z"/>
  <path class="cls-1" d="M55.36,204.99s-.07.03-.12.04c0,0,.12-.04.12-.04Z"/>
</svg>