<?xml version="1.0" encoding="UTF-8"?>
<svg id="Capa_1" data-name="Capa 1" xmlns="http://www.w3.org/2000/svg" viewBox="0 0 394 413">
  <defs>
    <style>
      .cls-1 {
        fill: #fff;
        stroke-width: 0px;
      }
    </style>
  </defs>
  <path class="cls-1" d="M181.74,50.49c84.59,0,153.57,68.98,153.51,153.5-.07,84.63-68.97,153.52-153.53,153.5-85.46-.02-154.37-70.25-153.49-155.09.86-83.87,69.66-152.04,153.52-151.91ZM171.97,212.41c.13-.45.27-.69.27-.94.02-10.09.01-20.18.06-30.27,0-1.37-.59-1.89-1.86-1.87-5.89.11-11.97-.69-17.65.49-23.42,4.83-39.6,18.73-46.39,41.69-6.74,22.79-1.78,43.36,15.7,60.23,17.69,17.07,43.08,21.77,65.54,12.21,22.32-9.51,36.38-30.97,36.39-55.57,0-20.7,0-41.41,0-62.11v-3.39c11.14,7.62,22.71,12.22,35.63,13.76v-39.52c-.81-.07-1.41-.13-2.01-.16-7.78-.47-15.24-2.36-21.66-6.79-10.27-7.1-17.64-16.46-20.28-28.99-.31-1.47-1.07-2.02-2.52-2.01-6.61.03-13.22.05-19.83,0-1.81-.02-2.54.73-2.46,2.48.05.95,0,1.91,0,2.87,0,41.5,0,82.99,0,124.49,0,11.73-7.72,22.29-19.05,25.56-13.44,3.89-24.19-1.74-30.5-10.49-6.74-9.33-6.78-19.72-.79-29.47,5.97-9.7,15.08-14.08,26.6-12.91,1.61.16,3.21.49,4.82.74Z"/>
</svg>