<?xml version="1.0" encoding="UTF-8"?>
<svg id="Capa_1" data-name="Capa 1" xmlns="http://www.w3.org/2000/svg" viewBox="0 0 331.93 321.64">
  <defs>
    <style>
      .cls-1 {
        fill: #b153e5;
        stroke-width: 0px;
      }
    </style>
  </defs>
  <path class="cls-1" d="M183.85,70.77h0c2.73,12.07,16.57,17.8,27.03,11.2h0c16.14-10.19,34.9,8.57,24.71,24.71h0c-6.61,10.46-.87,24.31,11.2,27.03h0c18.62,4.21,18.62,30.74,0,34.94h0c-12.07,2.73-17.8,16.57-11.2,27.03h0c10.19,16.14-8.57,34.9-24.71,24.71h0c-10.46-6.61-24.31-.87-27.03,11.2h0c-4.21,18.62-30.74,18.62-34.94,0h0c-2.73-12.07-16.57-17.8-27.03-11.2h0c-16.14,10.19-34.9-8.57-24.71-24.71h0c6.61-10.46.87-24.31-11.2-27.03h0c-18.62-4.21-18.62-30.74,0-34.94h0c12.07-2.73,17.8-16.57,11.2-27.03h0c-10.19-16.14,8.57-34.9,24.71-24.71h0c10.46,6.61,24.31.87,27.03-11.2h0c4.21-18.62,30.74-18.62,34.94,0Z"/>
</svg>