<?xml version="1.0" encoding="UTF-8"?>
<svg id="Capa_1" data-name="Capa 1" xmlns="http://www.w3.org/2000/svg" viewBox="0 0 800 800">
  <defs>
    <style>
      .cls-1 {
        fill: #fdfefd;
      }

      .cls-1, .cls-2 {
        stroke-width: 0px;
      }

      .cls-2 {
        fill: #4b2383;
      }
    </style>
  </defs>
  <path class="cls-2" d="M418.95,678h-43.5c-.6-1.26-1.8-.97-2.83-1.06-54.99-5.09-104.5-24.3-147.66-58.77-57.36-45.83-91.9-105.17-103.25-177.87-.93-5.96-.54-12.15-2.94-17.87v-45.68c1.56-.69,1.02-2.15,1.13-3.32,1.14-12.25,2.81-24.46,5.68-36.38,10.17-42.25,28.7-80.49,56.46-114.06,6.66-8.05,13.11-16.36,21.4-22.91,1.63,1.92,3.14,3.96,4.92,5.74,24.41,24.46,48.86,48.88,73.28,73.33,1.9,1.9,4.18,3.55,4.72,6.45-5.3,5.58-9.82,11.71-13.86,18.3-32.23,52.62-35.17,106.52-7.38,161.83,1.29,2.58,1.68,4.81.91,7.7-6.29,23.77-12.43,47.59-18.48,71.42-.53,2.09-2.01,4.23-.92,6.65,26.74-6.58,53.26-13.07,79.74-19.7,2.04-.51,3.65-.62,5.56.38,16.04,8.38,33.23,13.19,51.03,15.88,17.46,2.65,34.99,2.32,52.21-1.18,27.22-5.52,51.54-17.5,72.95-35.28,3.33-.06,5.11,2.4,7.13,4.43,26.45,26.5,52.88,53,79.32,79.51-19.1,19.51-40.78,35.4-64.77,48.57-29.22,16.03-60.17,26.09-92.97,31.1-5.96.91-12.15.47-17.89,2.79Z"/>
  <path class="cls-2" d="M203.44,200.08c18.25-18.68,39.28-33.71,62.24-45.9,103.32-54.87,227.02-40.91,314.94,36.26,53.48,46.94,84.49,106.28,93,177.08,4.98,41.46.62,81.98-12.87,121.53-13.24,38.82-33.9,73.11-62.25,102.76-1.24,1.3-2.61,2.48-3.91,3.72-26.44-26.51-52.87-53.01-79.32-79.51-2.02-2.02-3.8-4.49-7.13-4.43,1.27-1.26,2.53-2.54,3.82-3.79,42.58-41.14,59.55-91.19,47.58-149.01-17.71-85.47-97.72-138.34-183.68-123.36-16.1,2.8-31.51,8.09-45.78,15.77-16.45,8.85-30.9,20.68-43.7,34.38-.54-2.9-2.83-4.56-4.72-6.45-24.42-24.45-48.87-48.87-73.28-73.33-1.77-1.78-3.28-3.82-4.92-5.74Z"/>
  <path class="cls-1" d="M286.36,285.6c12.81-13.7,27.25-25.53,43.7-34.38,14.28-7.68,29.69-12.97,45.78-15.77,85.96-14.98,165.98,37.89,183.68,123.36,11.98,57.82-4.99,107.87-47.58,149.01-1.29,1.25-2.55,2.52-3.82,3.79-21.4,17.78-45.73,29.76-72.95,35.28-17.22,3.49-34.75,3.82-52.21,1.18-17.81-2.7-34.99-7.5-51.03-15.88-1.91-1-3.52-.89-5.56-.38-26.48,6.63-53,13.12-79.74,19.7-1.1-2.42.38-4.57.92-6.65,6.05-23.83,12.18-47.65,18.48-71.42.77-2.89.38-5.12-.91-7.7-27.79-55.3-24.86-109.21,7.38-161.83,4.04-6.59,8.56-12.72,13.86-18.3ZM294.16,321.5c-1.94,3.23-4.15,6.34-5.77,9.72-21.19,44.32-19.5,87.68,5.79,129.92,1.51,2.52,1.99,4.64,1.19,7.58-3.71,13.61-7.02,27.33-10.7,40.95-.97,3.58-.72,4.45,3.28,3.45,13.86-3.47,27.8-6.6,41.73-9.82,2.76-.64,5.33-1.36,8.28.41,18.17,10.9,37.9,17.06,59.08,18.15,35.89,1.85,67.4-9.1,94.44-32.83.59-.41,1.24-.75,1.75-1.25,37.12-36.11,50.79-79.66,37.93-129.8-17.36-67.69-82.96-108.48-151.83-95.11-36.55,7.1-65.13,26.95-85.17,58.62Z"/>
  <path class="cls-2" d="M294.16,321.5c20.04-31.67,48.62-51.52,85.17-58.62,68.86-13.37,134.46,27.42,151.83,95.11,12.86,50.14-.8,93.69-37.93,129.8-.51.49-1.16.84-1.75,1.25-2.53-1.13-4.2-3.29-6.14-5.12-6.77-6.36-12.71-13.58-20.06-19.33,14.86-6.11,21.41-17.51,21.24-33.23-.03-2.54-.66-4.56-2.98-5.95-10.48-6.24-21.59-10.94-33.42-13.95-3.22-.82-5.52.17-7.47,2.85-3.4,4.69-7.12,9.14-10.51,13.84-1.58,2.19-3.34,3.19-5.98,2.45-27.74-7.85-47.5-25.17-60.15-50.85-1.39-2.83-.75-5.4,1.82-7.74,3.74-3.41,6.94-7.41,10.64-10.86,3.42-3.18,3.95-6.38,1.92-10.58-4.75-9.82-10.39-19.04-17.02-27.7-2.56-3.34-5.51-4.14-9.47-3.37-16.52,3.21-25.13,12.4-27.96,30.08-2.51-.87-3.93-3.08-5.78-4.76-8.6-7.85-15.53-17.55-25.99-23.32Z"/>
  <path class="cls-2" d="M294.16,321.5c10.46,5.77,17.4,15.47,25.99,23.32,1.84,1.68,3.26,3.89,5.78,4.76.15,5.56.17,11.16,1.44,16.6,4.86,20.86,16.38,38.08,30.75,53.33,14.03,14.89,30.07,27.33,48.9,35.99,18.63,8.57,37.63,13.82,58.26,9.1,7.36,5.75,13.29,12.97,20.06,19.33,1.95,1.83,3.61,3.99,6.14,5.12-27.04,23.72-58.55,34.68-94.44,32.83-21.18-1.09-40.91-7.25-59.08-18.15-2.95-1.77-5.52-1.05-8.28-.41-13.92,3.21-27.87,6.35-41.73,9.82-4,1-4.24.13-3.28-3.45,3.68-13.62,6.99-27.34,10.7-40.95.8-2.93.32-5.06-1.19-7.58-25.3-42.24-26.99-85.6-5.79-129.92,1.62-3.39,3.83-6.49,5.77-9.72Z"/>
  <path class="cls-1" d="M465.27,464.59c-20.64,4.72-39.63-.53-58.26-9.1-18.83-8.65-34.87-21.09-48.9-35.99-14.37-15.25-25.89-32.47-30.75-53.33-1.27-5.43-1.29-11.04-1.44-16.6,2.83-17.68,11.44-26.87,27.96-30.08,3.96-.77,6.92.03,9.47,3.37,6.63,8.66,12.27,17.89,17.02,27.7,2.03,4.2,1.5,7.4-1.92,10.58-3.71,3.45-6.91,7.45-10.64,10.86-2.56,2.34-3.21,4.91-1.82,7.74,12.64,25.68,32.41,42.99,60.15,50.85,2.64.75,4.39-.25,5.98-2.45,3.39-4.7,7.11-9.15,10.51-13.84,1.95-2.69,4.25-3.67,7.47-2.85,11.83,3.01,22.94,7.71,33.42,13.95,2.32,1.38,2.96,3.41,2.98,5.95.16,15.73-6.39,27.13-21.24,33.23Z"/>
</svg>