<?xml version="1.0" encoding="UTF-8"?>
<svg id="Capa_1" data-name="Capa 1" xmlns="http://www.w3.org/2000/svg" viewBox="0 0 800 800">
  <defs>
    <style>
      .cls-1 {
        fill: #fff;
        stroke-width: 0px;
      }
    </style>
  </defs>
  <path class="cls-1" d="M196.96,167.77c22.8-24.38,48.5-45.43,77.78-61.19,25.41-13.67,52.83-23.08,81.48-28.07,152.99-26.66,295.4,67.43,326.92,219.55,21.32,102.9-8.88,191.98-84.67,265.2-2.3,2.22-4.54,4.49-6.8,6.74-38.09,31.65-81.39,52.96-129.83,62.79-30.64,6.22-61.84,6.8-92.92,2.1-31.69-4.8-62.28-13.35-90.83-28.27-3.41-1.78-6.27-1.58-9.9-.67-47.13,11.79-94.32,23.35-141.92,35.06-1.95-4.31.69-8.12,1.63-11.84,10.77-42.42,21.68-84.81,32.88-127.11,1.36-5.15.68-9.12-1.62-13.7-49.46-98.43-44.24-194.37,13.13-288.01,7.18-11.73,15.23-22.63,24.67-32.56ZM210.84,231.65c-3.45,5.76-7.38,11.28-10.26,17.31-37.72,78.88-34.71,156.05,10.31,231.23,2.68,4.48,3.54,8.27,2.12,13.49-6.59,24.22-12.49,48.64-19.04,72.88-1.72,6.37-1.28,7.92,5.83,6.14,24.67-6.17,49.48-11.75,74.27-17.47,4.91-1.13,9.48-2.42,14.74.73,32.34,19.4,67.45,30.36,105.14,32.3,63.88,3.3,119.96-16.2,168.08-58.43,1.04-.73,2.21-1.34,3.11-2.22,66.07-64.27,90.39-141.78,67.5-231.01-30.91-120.48-147.65-193.07-270.21-169.28-65.04,12.63-115.92,47.96-151.59,104.33Z"/>
  <path class="cls-1" d="M515.39,486.32c-36.73,8.41-70.53-.95-103.69-16.19-33.51-15.4-62.06-37.54-87.03-64.05-25.57-27.14-46.07-57.79-54.72-94.92-2.25-9.67-2.29-19.64-2.56-29.54,5.03-31.47,20.36-47.82,49.76-53.54,7.05-1.37,12.31.06,16.86,6,11.8,15.42,21.84,31.83,30.3,49.3,3.62,7.47,2.67,13.17-3.41,18.83-6.6,6.14-12.29,13.26-18.94,19.33-4.56,4.17-5.71,8.75-3.23,13.78,22.5,45.7,57.68,76.52,107.05,90.49,4.7,1.33,7.82-.45,10.64-4.35,6.03-8.36,12.65-16.29,18.71-24.63,3.47-4.78,7.56-6.54,13.3-5.08,21.05,5.36,40.83,13.72,59.49,24.82,4.13,2.46,5.26,6.07,5.31,10.58.29,27.99-11.37,48.28-37.81,59.15Z"/>
</svg>