<?xml version="1.0" encoding="UTF-8"?>
<svg id="Capa_1" data-name="Capa 1" xmlns="http://www.w3.org/2000/svg" viewBox="0 0 468 413">
  <defs>
    <style>
      .cls-1 {
        fill: #b153e5;
        stroke-width: 0px;
      }
    </style>
  </defs>
  <path class="cls-1" d="M239.09,95.84c31.86,0,63.71-.24,95.57.07,30.82.3,53.59,14.76,68.19,42.39,5.53,10.47,8.02,21.91,8.05,33.8.09,30.77.18,61.54,0,92.32-.22,38.29-26.45,69.69-63.36,76.06-4.24.73-8.61,1-12.91,1.01-63.92.06-127.83.06-191.75.04-36.3-.02-67.19-25.62-74.25-61.69-1.03-5.25-1.5-10.71-1.52-16.07-.14-30.21-.12-60.42-.05-90.63.09-38.18,26.31-69.85,63.14-76.25,3.97-.69,8.06-.99,12.09-1,32.27-.08,64.53-.04,96.8-.04ZM196.03,219.72h0c0,14.5-.03,29.01.06,43.51,0,1.19.45,2.93,1.29,3.48,4.43,2.94,9.32,4.37,14.39,1.96,7.27-3.46,14.41-7.21,21.61-10.84,21.09-10.65,42.19-21.3,63.27-31.96,2.28-1.15,2.96-2.86,1.4-4.92-1.5-1.99-3.4-3.93-5.53-5.13-26.22-14.69-52.57-29.15-78.76-43.9-5.13-2.89-9.81-2.29-14.74-.21-2.1.89-3.06,2.42-3.04,4.91.09,14.36.05,28.73.05,43.09Z"/>
</svg>